<svg xmlns="http://www.w3.org/2000/svg" viewBox="0 0 495 51"><defs><style>.cls-1{fill:none;stroke:#fff2c9;stroke-miterlimit:10;stroke-width:3px;}</style></defs><title>slut_project</title><g id="OBJECT"><path class="cls-1" d="M15,16.86c11.05,0,11.05,9.28,22.09,9.28s11-9.28,22.09-9.28,11.05,9.28,22.1,9.28,11-9.28,22.09-9.28,11,9.28,22.09,9.28,11-9.28,22.1-9.28,11.05,9.28,22.09,9.28,11-9.28,22.1-9.28,11,9.28,22.09,9.28,11-9.28,22.1-9.28,11,9.28,22.09,9.28,11.05-9.28,22.09-9.28,11.05,9.28,22.1,9.28,11-9.28,22.09-9.28,11.05,9.28,22.1,9.28,11-9.28,22.09-9.28,11.05,9.28,22.1,9.28,11-9.28,22.1-9.28,11.05,9.28,22.1,9.28,11.05-9.28,22.1-9.28S468,26.14,479,26.14"/></g></svg>