<svg xmlns="http://www.w3.org/2000/svg" viewBox="0 0 133.13 137.65"><defs><style>.cls-1{fill:#8674d4;}</style></defs><title>slut_project</title><g id="OBJECT"><path class="cls-1" d="M127.49,91a111.2,111.2,0,0,1-16.58-6.42A26,26,0,0,1,108,82.63a5,5,0,0,1-1.81-5.71A35.62,35.62,0,0,0,108,65.6a36.83,36.83,0,0,0-.23-4.09,3.52,3.52,0,0,1,2.45-3.78,9.39,9.39,0,0,1,.94-.25,85.63,85.63,0,0,1,15.77.12,5.52,5.52,0,1,0-2.2-10.19A89.38,89.38,0,0,1,112,53.62a21.47,21.47,0,0,1-2.64.65,3.51,3.51,0,0,1-4-2.1,35.59,35.59,0,0,0-3-5.85,4.44,4.44,0,0,1,1-6l.44-.32L107,37.76A115.17,115.17,0,0,1,121.89,29a8.19,8.19,0,1,0-11-11.15,143.42,143.42,0,0,1-9.4,15.74L99.76,36a4.29,4.29,0,0,1-6.07.94,35.41,35.41,0,0,0-5-3.13,6.78,6.78,0,0,1-3.56-7.4l.07-.33a59,59,0,0,1,5.49-14.53A6.9,6.9,0,1,0,77.86,9.93a110.82,110.82,0,0,1,1.57,12.64,6.71,6.71,0,0,1-6.8,7.24H72.2a35.52,35.52,0,0,0-8.87,1.12,3.57,3.57,0,0,1-4.39-2.59l-1.09-4.45A150.17,150.17,0,0,1,55.33,7.37,8.19,8.19,0,0,0,48.8.18,8,8,0,0,0,40.14,4a8.2,8.2,0,0,0,.9,9.59A108.07,108.07,0,0,1,51.45,27.05s1.17,1.94,2.24,3.81a3.63,3.63,0,0,1-1.16,4.84,36,36,0,0,0-9,8.44,2.87,2.87,0,0,1-3.85.76l-.59-.41a89.43,89.43,0,0,1-10.84-9.36,5.58,5.58,0,1,0-5,9.35A89.83,89.83,0,0,1,37.29,48h0l.12,0a2.9,2.9,0,0,1,1.68,3.9,35.69,35.69,0,0,0-2.72,13.7c0,.57,0,1.14,0,1.71a4.53,4.53,0,0,1-4,4.76l-.3,0-3.61.31a143.5,143.5,0,0,1-19.23,0,8.8,8.8,0,1,0,4.33,16.16,141,141,0,0,1,20-10.46l.12,0a4.53,4.53,0,0,1,5.86,2.4,35.64,35.64,0,0,0,5.57,8.65,4.44,4.44,0,0,1-.43,6.23,1.57,1.57,0,0,1-.21.17,96.62,96.62,0,0,1-13,8.6A6.14,6.14,0,1,0,40,112.13a90.25,90.25,0,0,1,7.63-13.52l.16-.22a11.12,11.12,0,0,1,.89-1.06,4.51,4.51,0,0,1,5.58-.79,35.1,35.1,0,0,0,8.53,3.58,3,3,0,0,1,2.15,3.49,17.92,17.92,0,0,1-.7,2.85,128.88,128.88,0,0,1-9,18.78,8.19,8.19,0,1,0,15.15,3.25,130.43,130.43,0,0,1-.5-21h0a14,14,0,0,1,.5-2.93,4.63,4.63,0,0,1,3.95-3.49c2.22-.27,5.3-.71,7.94-1.3a4.19,4.19,0,0,1,5.09,3.51l.51,3.64A80.26,80.26,0,0,1,88.4,119a6.14,6.14,0,1,0,11-3.61,48.35,48.35,0,0,1-4.1-6.15l-2.86-5.37A29.74,29.74,0,0,1,90.94,100,4.33,4.33,0,0,1,92.58,95a35.91,35.91,0,0,0,7.23-6.64,4.91,4.91,0,0,1,6.85-.78l.17.15L111,91.59A64.27,64.27,0,0,1,119.7,102a7.15,7.15,0,1,0,7.79-11ZM78.07,35.77a4.48,4.48,0,1,1-4.48,4.48A4.47,4.47,0,0,1,78.07,35.77Zm-2.14,31.7a4.1,4.1,0,1,1-4.1-4.11A4.1,4.1,0,0,1,75.93,67.47ZM45.36,68.58a4.47,4.47,0,1,1,4.47,4.48A4.47,4.47,0,0,1,45.36,68.58ZM54.2,87.23a4.48,4.48,0,1,1,4.48-4.48A4.48,4.48,0,0,1,54.2,87.23ZM61,58.14a8.95,8.95,0,1,1,8.95-9A8.94,8.94,0,0,1,61,58.14ZM74.44,95.43a6.71,6.71,0,1,1,6.71-6.71A6.7,6.7,0,0,1,74.44,95.43ZM88.51,81.26A4.48,4.48,0,1,1,93,76.79,4.48,4.48,0,0,1,88.51,81.26Zm.1-15.66a8.21,8.21,0,1,1,8.2-8.2A8.2,8.2,0,0,1,88.61,65.6Z"/></g></svg>