<svg xmlns="http://www.w3.org/2000/svg" viewBox="0 0 220.2 179.5"><defs><style>.cls-1{fill:#fff2c9;}</style></defs><title>slut_project</title><g id="OBJECT"><g id="g18wZA.tif"><path class="cls-1" d="M150.29,0h4.44c1.31.15,2.63.26,3.94.45A45.06,45.06,0,0,1,185,13.71a1.65,1.65,0,0,0,1.72.5A90.84,90.84,0,0,0,213.41,4.06c.26-.14.53-.26.79-.38-3.41,10.59-10,18.66-19.23,24.67a66.2,66.2,0,0,0,12.84-2.43c4.17-1.26,8.28-2.72,12.38-4.08,0,0,0,0,0,.08l-.45.7a91,91,0,0,1-20.48,21.19,2.72,2.72,0,0,0-1.27,2.6,117.92,117.92,0,0,1-1.52,24.32,132.84,132.84,0,0,1-15.22,43.7c-14.92,26.62-36.25,46-64.87,57.07a124.06,124.06,0,0,1-30.73,7.44c-1.4.16-2.8.37-4.2.56H57a7.19,7.19,0,0,0-.8-.2c-3.78-.55-7.58-1-11.33-1.66A127.09,127.09,0,0,1,.62,160.34a6.62,6.62,0,0,1-.62-.46,94.67,94.67,0,0,0,35-3.06,87.91,87.91,0,0,0,31.26-16,46,46,0,0,1-25.88-9A45,45,0,0,1,24.3,109.6c3.49.15,6.8.41,10.11.4a30.51,30.51,0,0,0,9.79-1.59A45.86,45.86,0,0,1,18.29,92.32a44.68,44.68,0,0,1-10-28.57c3.42,1.27,6.64,2.6,9.94,3.65a33.21,33.21,0,0,0,10.29,1.5C18.89,62,12.46,53,9.81,41.44s-1-22.47,4.88-33A130,130,0,0,0,56.58,42.11a128.06,128.06,0,0,0,51.77,13.73c-.1-.54-.14-.84-.2-1.14a46.86,46.86,0,0,1-.24-17.19A45.43,45.43,0,0,1,144.71.76C146.56.45,148.43.25,150.29,0Z"/></g></g></svg>