<svg xmlns="http://www.w3.org/2000/svg" viewBox="0 0 143.87 140.74"><defs><style>.cls-1{fill:#3e2f80;}</style></defs><title>slut_project</title><g id="OBJECT"><path class="cls-1" d="M26,51.46c1.07.89,2.81.3,4.6-1C32.48,52.89,39,61.37,41.47,62.7c2.87,1.57,8.54-8.81,5.67-10.38-2.35-1.28-12.29-2.19-15.8-2.47,3.72-3.15,7.28-9,5-10.89C32.93,36.1,14.09,31,14.09,31S22.56,48.6,26,51.46Z"/><path class="cls-1" d="M116.77,92.36c-3.45-2.86-13.83,9.63-10.38,12.5s22.29,8,22.29,8S120.22,95.23,116.77,92.36Z"/><path class="cls-1" d="M21.87,68.88c-4.48.18-21.87,9-21.87,9s18.06,7.38,22.55,7.2S26.35,68.69,21.87,68.88Z"/><path class="cls-1" d="M122,71.68c4.48-.19,21.87-9,21.87-9s-18.07-7.38-22.55-7.19S117.52,71.86,122,71.68Z"/><path class="cls-1" d="M41.59,86.6c3.18-.77.37-12.27-2.8-11.49s-14.33,9.58-14.33,9.58S38.42,87.38,41.59,86.6Z"/><path class="cls-1" d="M102.28,52.86c-3.18.77-.37,12.27,2.8,11.49s14.33-9.58,14.33-9.58S105.45,52.09,102.28,52.86Z"/><path class="cls-1" d="M47.61,80.68c-2.68,1.86-9.92,14.09-9.92,14.09s14-2.51,16.67-4.37S50.3,78.82,47.61,80.68Z"/><path class="cls-1" d="M89.51,48c-2.69,1.87,4.06,11.58,6.75,9.72s9.92-14.09,9.92-14.09S92.19,46.11,89.51,48Z"/><path class="cls-1" d="M60.56,107.22c1.74-2.76-8.27-9.06-10-6.29s-3.62,16.85-3.62,16.85S58.82,110,60.56,107.22Z"/><path class="cls-1" d="M87.87,45.08c1.74-2.77,3.61-16.85,3.61-16.85S79.59,36,77.86,38.78,86.13,47.85,87.87,45.08Z"/><path class="cls-1" d="M63.64,103.34c-.59,3.22,2.88,17,2.88,17s8.16-11.64,8.76-14.85S64.24,100.13,63.64,103.34Z"/><path class="cls-1" d="M78,35c.6-3.22-2.87-17-2.87-17S67,29.67,66.41,32.88,77.45,38.24,78,35Z"/><path class="cls-1" d="M89.56,99.16C88.82,96,77.3,98.66,78,101.84s9.43,14.43,9.43,14.43S90.3,102.34,89.56,99.16Z"/><path class="cls-1" d="M64.74,39.8c-.74-3.18-9.43-14.43-9.43-14.43S52.48,39.3,53.22,42.48,65.48,43,64.74,39.8Z"/><path class="cls-1" d="M102.6,103.14s-3.74-13.71-5.84-16.21S85.59,92,87.69,94.51,102.6,103.14,102.6,103.14Z"/><path class="cls-1" d="M42.74,50.35c2.1,2.51,11.17-5.08,9.08-7.58S36.9,34.14,36.9,34.14,40.65,47.84,42.74,50.35Z"/><path class="cls-1" d="M104.58,76.76c-2.87-1.57-8.54,8.81-5.67,10.38s17,2.57,17,2.57S107.44,78.32,104.58,76.76Z"/><path class="cls-1" d="M99.82,65.26c-3.24-.4-4.67,11.35-1.43,11.74s16.78-3.91,16.78-3.91S103.06,65.65,99.82,65.26Z"/><path class="cls-1" d="M45.48,63.55c-3.24-.4-16.78,3.91-16.78,3.91s12.11,7.44,15.35,7.83S48.72,64,45.48,63.55Z"/><path class="cls-1" d="M87.19,61.48c-2.29.62-.06,8.93,2.23,8.31s10.26-7.21,10.26-7.21S89.49,60.86,87.19,61.48Z"/><path class="cls-1" d="M56.68,79.07c2.29-.62.06-8.92-2.23-8.31S44.19,78,44.19,78,54.38,79.69,56.68,79.07Z"/><path class="cls-1" d="M63.94,74.39c-2.08,1.15-8.23,9.46-8.23,9.46S66,83.07,68.1,81.93,66,73.25,63.94,74.39Z"/><path class="cls-1" d="M71.87,82.87C72.25,85.22,78,93.81,78,93.81s2.76-10,2.38-12.31S71.49,80.53,71.87,82.87Z"/><path class="cls-1" d="M97.39,85.38S93,76.05,91.13,74.53s-7.35,5.06-5.53,6.59S97.39,85.38,97.39,85.38Z"/><path class="cls-1" d="M59.36,54c-1.82-1.53-11.79-4.27-11.79-4.27S52,59.05,53.83,60.57,61.18,55.5,59.36,54Z"/><path class="cls-1" d="M75.43,52.67c.08-2.37-3.87-11.92-3.87-11.92S66.92,50,66.83,52.36,75.34,55,75.43,52.67Z"/><path class="cls-1" d="M73,61.1C72,59,64,52.3,64,52.3s.14,10.34,1.16,12.49S74,63.25,73,61.1Z"/><path class="cls-1" d="M63,65.19c-2.31-.54-12.44,1.52-12.44,1.52S58.7,73,61,73.57,65.29,65.73,63,65.19Z"/><path class="cls-1" d="M82.77,63.13c1.18-2.06,2.08-12.36,2.08-12.36s-8.38,6-9.56,8.11S81.6,65.2,82.77,63.13Z"/><path class="cls-1" d="M68.58,91.49c1.17-2.07-6.31-6.32-7.48-4.26S59,99.59,59,99.59,67.4,93.55,68.58,91.49Z"/><path class="cls-1" d="M28.8,52.84c-4.25-1.41-23.65.68-23.65.68S19.41,66.84,23.67,68.25,33.06,54.26,28.8,52.84Z"/><path class="cls-1" d="M116.16,87.71c4.25,1.42,23.65-.68,23.65-.68S125.55,73.72,121.29,72.3,111.9,86.29,116.16,87.71Z"/><path class="cls-1" d="M24.55,86.22C20.43,88,7.34,102.46,7.34,102.46s19.51.46,23.63-1.31S28.67,84.45,24.55,86.22Z"/><path class="cls-1" d="M116,51.05c4.13-1.77,17.22-16.24,17.22-16.24s-19.51-.45-23.63,1.32S111.92,52.83,116,51.05Z"/><path class="cls-1" d="M35.58,98.4c-3.2,3.14-10.19,21.36-10.19,21.36S43.75,113.14,47,110,38.78,95.26,35.58,98.4Z"/><path class="cls-1" d="M105,40c3.2-3.14,10.18-21.36,10.18-21.36s-18.35,6.62-21.56,9.76S101.81,43.11,105,40Z"/><path class="cls-1" d="M50.15,117.09c-1.67,4.16-.78,23.65-.78,23.65s14.17-13.41,15.85-17.57S51.83,112.93,50.15,117.09Z"/><path class="cls-1" d="M92.63,24.55C94.3,20.39,93.41.9,93.41.9S79.24,14.31,77.56,18.47,91,28.71,92.63,24.55Z"/><path class="cls-1" d="M69,118.71c.2,4.48,9.1,21.84,9.1,21.84s7.33-18.08,7.13-22.57S68.84,114.23,69,118.71Z"/><path class="cls-1" d="M71.56,21.85C71.36,17.36,62.45,0,62.45,0s-7.32,18.09-7.12,22.57S71.76,26.33,71.56,21.85Z"/><path class="cls-1" d="M89.56,114.73c2.07,4,17.46,16,17.46,16s-1-19.49-3-23.47S87.5,110.75,89.56,114.73Z"/><path class="cls-1" d="M51,24.73c-2.07-4-17.46-16-17.46-16s1,19.49,3,23.47S53.1,28.71,51,24.73Z"/><circle class="cls-1" cx="76.77" cy="71.25" r="5.45"/></g></svg>