<svg xmlns="http://www.w3.org/2000/svg" viewBox="0 0 678 42"><defs><style>.cls-1{fill:none;stroke:#fff2c9;stroke-miterlimit:10;stroke-width:3px;}</style></defs><title>slut_project</title><g id="OBJECT"><path class="cls-1" d="M18,13c15.5,0,15.5,13,31,13S64.49,13,80,13s15.5,13,31,13,15.5-13,31-13,15.5,13,31,13,15.5-13,31-13,15.5,13,31,13,15.5-13,31-13,15.5,13,31,13,15.5-13,31-13,15.5,13,31,13,15.5-13,31-13,15.5,13,31,13,15.5-13,31-13,15.5,13,31,13,15.5-13,31-13,15.5,13,31,13,15.5-13,31-13,15.5,13,31,13,15.5-13,31-13,15.51,13,31,13"/></g></svg>