<svg xmlns="http://www.w3.org/2000/svg" viewBox="0 0 186 205"><defs><style>.cls-1{fill:#fff2c9;}.cls-2{fill:#3e2f80;}.cls-3{fill:#ff931e;}.cls-4{fill:#262626;}</style></defs><title>slut_project</title><g id="TEXT"><path class="cls-1" d="M81.42,164.54l-.4-.08-.13,0-.27-.06-.19,0-.22-.05-.19-.05-.22-.06-.19-.06-.22-.07L79.2,164l-.21-.07h0l-.22-.08-.18-.06-.19-.07-.21-.09-.19-.07-.21-.09-.19-.08-.2-.09h0l-.28-.13-.06,0-.27-.13-.19-.1-.21-.11-.19-.1-.21-.12-.18-.1-.23-.14-.15-.08-.26-.17L75,162l-.37-.24,0,0-.4-.28h0l-.11-.07-.42-.32,0,0-.37-.29-.07-.05-.45-.38a.46.46,0,0,0-.07-.07l-.07-.05-.47-.43-.14-.13-.19-.19-.08-.07-.25-.25,0,0c-.1-.1-.2-.2-.29-.31l-.14-.15-.17-.18-.14-.15h0c-.07-.08-.13-.16-.2-.23l-.11-.13-.17-.2L70,157.5c-.12-.15-.25-.3-.36-.46l0,0-.36-.47-.07-.1-.21-.29-.13-.18-.14-.22,0-.06-.33-.52h0l-.18-.3-.07-.11-.19-.32-.06-.1-.14-.25-.1-.17-.15-.28a1.09,1.09,0,0,0-.08-.15c-.07-.13-.14-.26-.2-.4l0,0-.42-.87-.06-.16c0-.1-.09-.19-.13-.29l-.09-.22-.12-.28-.06-.16-.12-.3,0-.12-.09-.24-.06-.17-.09-.26v0l0-.1c-.06-.18-.11-.36-.17-.55v0a1.09,1.09,0,0,1-.05-.17l-.15-.53h0a.83.83,0,0,1,0-.15c0-.14-.07-.27-.1-.41l0-.05c0-.19-.09-.39-.13-.58a.3.3,0,0,0,0-.1c0-.17-.07-.35-.1-.52s0-.05,0-.08,0-.29-.08-.44l0-.2a2.36,2.36,0,0,0,0-.28,1.8,1.8,0,0,1,0-.22,2.7,2.7,0,0,1,0-.28c0-.07,0-.15,0-.22l0-.26a1.64,1.64,0,0,0,0-.23c0-.09,0-.17,0-.26s0-.16,0-.24,0-.15,0-.23a.86.86,0,0,0,0-.16c0-.11,0-.21,0-.32V143h0v-.61c0-.06,0-.12,0-.18s0-.24,0-.37a.53.53,0,0,0,0-.13c0-.07,0-.14,0-.21a2,2,0,0,0,0-.25,2.11,2.11,0,0,0,0-.25c0-.14,0-.27,0-.41a1.1,1.1,0,0,1,0-.18c0-.13,0-.27,0-.4l0-.1c0-.06,0-.13,0-.19s0-.16,0-.24,0-.18,0-.27,0-.24.08-.36,0-.14,0-.2l.09-.38v0l.06-.23a1.21,1.21,0,0,1,0-.18,2.45,2.45,0,0,1,.08-.29l.11-.38.06-.16.12-.36,0-.08.09-.25.06-.16.12-.29a1.22,1.22,0,0,1,.07-.17l.12-.28.06-.13.18-.38a1.3,1.3,0,0,0,.08-.17l.18-.34.06-.12c.08-.14.16-.29.25-.43l.06-.1.26-.43.09-.13.34-.48,0-.06.22-.28.1-.14.12-.15a1.83,1.83,0,0,0,.13-.16l.36-.41.06-.07.24-.26a.94.94,0,0,0,.1-.1l.27-.26h0l.41-.38.08-.07.27-.23.11-.09.29-.23.08-.06.43-.31,0,0,.29-.2.12-.07.3-.19.08,0,.47-.26,0,0a3.18,3.18,0,0,1,.32-.16,13.57,13.57,0,0,1,8.49-1.13l6.18,1.09,39.37,6.94-.06-11.43-45.55-8-.41-.07-.42-.06-.26,0-.6-.07H79.4l-1.06-.08-.24,0c-.38,0-.77,0-1.15,0h-.61l-.57,0-.57,0h-.11l-.29,0c-.1,0-.21,0-.31,0l-.56.07-.14,0-.47.07-.12,0-.57.1-.34.08-.23.05-.17,0-.39.09-.78.22-.68.21-.15.06-.41.14-.43.16-.17.07-.41.17-.2.09-.38.17-.19.09a21.34,21.34,0,0,0-5.48,3.77,23.93,23.93,0,0,0-5.69,8.54,30,30,0,0,0-2.05,11.33,36,36,0,0,0,2.18,12.07,38.15,38.15,0,0,0,5.8,10.56A34.73,34.73,0,0,0,71,171.76,28.12,28.12,0,0,0,81.48,176L127,184,127,172.57Z"/><path class="cls-1" d="M119.39,109.24l.08,0,.41-.23.1-.06.46-.27.1-.06.39-.26.09,0,.45-.31.09-.07c.14-.09.27-.19.39-.28l.07,0,.43-.34a.39.39,0,0,0,.1-.08c.14-.1.27-.21.4-.32l0,0c.14-.11.28-.24.41-.36l.1-.09.41-.38h0c.38-.36.75-.75,1.11-1.14l0,0c.09-.1.19-.2.28-.31l.1-.12c.12-.13.23-.27.35-.41l.18-.22.19-.24,0,0,.17-.22.18-.24.06-.08c.23-.32.45-.63.67-1l.09-.15.12-.18.14-.21c.08-.15.17-.29.26-.43l0,0,.26-.46.09-.16.21-.41.06-.1,0,0,.24-.48c.15-.29.28-.59.42-.89,0-.06.05-.12.08-.19a2.88,2.88,0,0,0,.13-.31c.07-.16.14-.31.2-.47l.2-.51c.13-.36.26-.73.38-1.1l.1-.3c0-.12.07-.24.11-.36s.07-.22.1-.32.07-.25.1-.38l0-.12c.05-.18.1-.36.14-.53l.09-.36c.08-.33.15-.67.21-1l.06-.28c0-.14.05-.28.07-.42s.05-.25.07-.38a3.06,3.06,0,0,1,0-.32.77.77,0,0,1,0-.15c.07-.48.12-1,.17-1.47,0-.07,0-.13,0-.2l0-.33c0-.11,0-.22,0-.32s0-.47,0-.71v-.09c0-.12,0-.24,0-.35s0-.23,0-.34c0-.32,0-.65,0-1s0-.7,0-1c0-.09,0-.19,0-.29,0-.66-.07-1.31-.14-2l0-.27v-.09l-.06-.46V81.9l0-.27c0-.24-.07-.48-.1-.72l0-.08,0-.19c0-.21-.06-.41-.1-.62V80c-.06-.33-.13-.66-.2-1l-.09-.43,0-.13v0c0-.22-.1-.45-.16-.67v-.06c-.12-.5-.26-1-.41-1.49,0-.13-.07-.26-.11-.39l-.21-.67c0-.1-.07-.2-.1-.3l0-.12-.24-.67c-.07-.22-.15-.43-.23-.64s-.05-.12-.07-.17-.11-.29-.17-.43-.17-.44-.26-.66c0-.06-.05-.12-.08-.17l-.08-.2-.2-.45-.18-.38-.12-.27c-.47-1-1-2-1.53-2.92l-.09-.16c0-.08-.1-.16-.14-.24l-.13-.21-.14-.22c-.19-.32-.39-.63-.59-.94h0c0-.06-.07-.11-.1-.16l-.29-.43-.14-.2-.21-.31,0-.07-.3-.41-.13-.18c-.09-.12-.18-.23-.26-.35l-.3-.39c-.15-.19-.3-.39-.46-.58-.39-.48-.79-1-1.19-1.4l-.25-.27c-.3-.33-.6-.65-.91-1l-.12-.12-.28-.28-.24-.24-.3-.28-.13-.12c-.15-.15-.31-.29-.47-.43a.86.86,0,0,0-.14-.13,1.07,1.07,0,0,0-.16-.14l-.28-.25-.07-.06-.51-.43-.06-.05c-.7-.57-1.42-1.11-2.16-1.63l0,0-.8-.54-.35-.22-.54-.33-.13-.08-.39-.23-.07,0-.57-.32-.19-.1-.46-.24-.32-.16c-.53-.27-1.06-.51-1.6-.74l-.34-.14c-.2-.08-.4-.17-.61-.24l0,0-.47-.17-.17-.07-.43-.14-.23-.08-.95-.29-.23-.06-.12,0c-.43-.12-.85-.22-1.28-.31l-.12,0-.85-.16L37.6,39.47l.06,11.43,67.06,11.83c9.17,1.61,16.68,11.28,16.73,21.55a19.61,19.61,0,0,1-.31,3.65,16.86,16.86,0,0,1-1.69,4.94,13.73,13.73,0,0,1-6.2,6l-.11.06-.24.1-.11,0-.27.11-.09,0-.27.1-.17.06-.19.07-.17,0-.19.07-.17.05-.2,0-.17,0-.21,0-.11,0-.27,0-.09,0-.34.07h-.08l-.25,0-.41,0h0l-.47,0h-2.17l-.2,0-.22,0-.21,0-.2,0-.22,0-.21,0-.26,0-29-5.11-.33-.06-.47-.08-.14,0-.48-.07h-.07l-.31,0-.24,0-.27,0-.15,0-.41,0-.26,0-.29,0-.26,0-.84-.06h-.16l-.42,0h-.24c-.75,0-1.5,0-2.24,0H67.2l-.23,0-1.1.08h-.08l-.6.06-.17,0-.53.07h-.11l-1.27.19-.07,0c-.48.08-1,.18-1.44.28l-.11,0-.61.14-.12,0q-.4.09-.81.21h-.06l-.35.1-.39.11h0l-.59.19-.07,0-1.33.46-.09,0c-.8.3-1.6.63-2.37,1h0L54,97.7a33.89,33.89,0,0,0-8.52,5.93,38.2,38.2,0,0,0-9.16,13.74A48.11,48.11,0,0,0,33,135.59l.16,30.52,10.21,1.8-.17-30.52c0-.28,0-.55,0-.83v-.24c0-.18,0-.36,0-.53s0-.3,0-.45,0-.14,0-.21c0-.23,0-.46,0-.68h0l0-.45c0-.2,0-.39,0-.58s0-.12,0-.18l.06-.55c0-.15,0-.3.05-.45s0-.28,0-.42,0-.3.07-.45l.06-.42c0-.14,0-.29.07-.44s0-.28.07-.42l.09-.43c0-.14.05-.28.08-.42l.09-.41c0-.15.06-.3.1-.44s0-.21.07-.32.09-.35.13-.52.07-.26.11-.39l.12-.46a1,1,0,0,0,0-.14l.21-.7.12-.37.24-.7a.78.78,0,0,1,0-.14c.05-.17.12-.33.18-.49s.09-.26.14-.39.15-.37.23-.56A2.6,2.6,0,0,1,46,123l0-.08c.09-.22.19-.43.28-.64l0-.09.3-.65.08-.15c.09-.2.19-.39.29-.58a.2.2,0,0,1,0-.08c.1-.21.22-.42.33-.62h0l.14-.25.21-.38a2.39,2.39,0,0,0,.13-.21c.11-.19.22-.38.34-.56a.57.57,0,0,1,.08-.13c.11-.18.22-.36.34-.54l.2-.3.24-.35.21-.3.17-.23.24-.32,0-.06.26-.33,0,0c.07-.1.15-.19.23-.29l.25-.3a5.63,5.63,0,0,1,.38-.45,1.63,1.63,0,0,1,.17-.2l.34-.39.22-.24.46-.48.13-.13.6-.59.34-.32.11-.09.24-.22.12-.11.26-.22.09-.08.35-.29.08-.06.28-.23.12-.09.25-.2.12-.09.32-.23,0,0c.13-.08.25-.17.37-.26l.11-.07.27-.19.13-.08.27-.18.11-.07.38-.24.06,0,.32-.2.13-.07.27-.16.13-.07.31-.18.08,0,.4-.21.1,0,.3-.15a26.21,26.21,0,0,1,12.6-2.63,30.29,30.29,0,0,1,4.19.45l29,5.11a22.55,22.55,0,0,0,10.43-.52,20.68,20.68,0,0,0,3.38-1.34l.11-.05Z"/><path class="cls-2" d="M54.58,141.19A30.54,30.54,0,0,1,56.2,131l-1.87.92-11.2,5.47.17,30.52,16.54-8.09a38.11,38.11,0,0,1-3.08-6.56A36,36,0,0,1,54.58,141.19Z"/><path class="cls-3" d="M65.4,138l-.06.23,0-.12Z"/><path class="cls-3" d="M65.41,148c0,.14.06.27.1.41h0C65.47,148.29,65.44,148.16,65.41,148Z"/><path class="cls-2" d="M66.4,117.87c0-.15.06-.29.1-.44l.09-.41c0-.14.07-.28.11-.42s.07-.27.1-.4.09-.3.13-.46.08-.25.11-.38.09-.3.14-.45.11-.37.17-.55l0-.06c.08-.23.17-.47.25-.71l0-.1c.08-.23.16-.45.25-.67l0-.14c.09-.23.18-.45.28-.67l0-.09.28-.64,0-.08.3-.66.08-.15q.14-.3.3-.6l0-.06c.1-.21.21-.41.33-.62a2,2,0,0,1,.11-.2c.08-.16.17-.31.26-.47l.11-.18c.12-.21.25-.42.38-.62l0-.07.34-.53.2-.31.24-.35.21-.3.18-.24a26.21,26.21,0,0,0-12.6,2.63l-.3.15-.1,0-.4.21-.07,0-.32.18-.13.07-.27.16-.13.07-.32.2-.06,0-.38.24-.11.07-.27.18-.13.08-.27.19-.11.07c-.12.09-.24.18-.37.26l0,0L55,111l-.12.09-.25.2-.12.09-.28.23-.08.06-.35.29-.09.08-.26.22-.12.11-.24.22-.11.09-.34.32-.6.59-.13.13-.46.48-.22.24-.34.39a1.63,1.63,0,0,0-.17.2,5.63,5.63,0,0,0-.38.45l-.25.3c-.08.1-.16.19-.23.29l0,0-.26.33,0,.06-.24.32-.17.23-.21.3-.24.35-.2.3c-.12.18-.23.36-.34.54a.57.57,0,0,0-.08.13c-.12.18-.23.37-.34.56a2.39,2.39,0,0,1-.13.21l-.21.38-.14.25h0c-.11.2-.23.41-.33.62a.2.2,0,0,0,0,.08c-.1.19-.2.38-.29.58l-.08.15-.3.65,0,.09c-.09.21-.19.42-.28.64l0,.08a2.6,2.6,0,0,0-.1.25c-.08.19-.16.37-.23.56s-.1.26-.14.39l-.18.49a.78.78,0,0,0-.05.14l-.24.7-.12.37-.21.7a1,1,0,0,1,0,.14l-.12.46c0,.13-.07.26-.11.39s-.09.35-.13.52,0,.21-.07.32-.07.29-.1.44l-.09.41c0,.14-.06.28-.08.42s-.06.29-.08.43,0,.28-.08.42,0,.3-.07.44l-.06.42c0,.15,0,.3-.07.45s0,.28,0,.42,0,.3,0,.45l-.06.55c0,.06,0,.12,0,.18s0,.38,0,.58l0,.45h0c0,.22,0,.45,0,.68a1.48,1.48,0,0,1,0,.21c0,.15,0,.3,0,.45s0,.35,0,.53v.24c0,.28,0,.55,0,.83l11.2-5.47L56.2,131c.14-.39.28-.77.43-1.14a23.93,23.93,0,0,1,5.69-8.54,21.42,21.42,0,0,1,4-3v0Z"/><path class="cls-2" d="M54.57,97.38h0c.77-.35,1.57-.68,2.38-1l.05,0h0l1.33-.46.06,0h0l.6-.19h0l.39-.11.35-.1h.06q.4-.12.81-.21h0l.12,0,.61-.14.11,0h0c.48-.1,1-.2,1.44-.28l.07,0h0l1.27-.19h.11l.53-.07h0l.17,0,.61-.06h.07l1.1-.08h0l.23,0h1.15c.74,0,1.49,0,2.24,0h.24l.42,0h.16l.84.06h0l.26,0h0l.29,0,.26,0,.41,0,.15,0h0l.27,0h0l.24,0,.31,0h.07l.48.07.14,0,.47.08.33.06,22.39-11-.25,0-.14,0-.28,0-.27,0L97,83.71l-.27,0-.28,0-.27,0-.28,0-.13,0h-.13l-.29,0-.26,0-.29,0-.26,0-.29,0-.26,0-.29,0h-.26l-.32,0H89.84l-.35,0h-.23l-.35,0h-.22l-.51,0h-.1l-.6.06-.17,0-.44.06-.2,0-.43.07h-.17l-.67.11-.14,0-.56.1-.15,0-.66.14-.13,0-.56.12-.1,0h0l-.73.19-.14,0c-.25.06-.5.14-.75.21l-.6.19-.19.06-.43.14-.2.07-.44.16-.16,0-.06,0-.16.06-.53.21-.25.1-.48.2-.26.11-.49.21-.22.11c-.24.1-.47.21-.7.33L53.87,97.71h0l.66-.32Z"/><path class="cls-2" d="M104.83,100l14.52-7.1A16.86,16.86,0,0,0,121,87.93l-22.82-4-22.39,11Z"/><path class="cls-2" d="M105.09,100l.21,0,.22,0,.2,0,.21,0,.22,0,.2,0h2.17l.47,0H109l.41,0,.25,0h.08l.34-.07.09,0,.27,0,.11,0,.21,0,.17,0,.2,0,.17-.05.19-.07.17,0,.2-.07.16-.06.27-.1.1,0,.26-.11.11,0L113,99l.11-.06a13.73,13.73,0,0,0,6.2-6L104.83,100Z"/><path class="cls-4" d="M131.43,89.2h0c0,.07,0,.13,0,.2S131.42,89.27,131.43,89.2Z"/><polygon class="cls-2" points="115.75 45.82 126.95 40.35 59.88 28.53 37.5 39.47 104.56 51.3 115.75 45.82"/><path class="cls-2" d="M153.94,74.74v-.18c0-.13,0-.26,0-.39s0-.25,0-.38,0-.26,0-.39a1.48,1.48,0,0,0,0-.21s0-.1,0-.16l0-.42,0-.36c0-.14,0-.28,0-.41s0-.16,0-.23a.51.51,0,0,0,0-.13c0-.16,0-.31,0-.47s0-.22,0-.33,0-.33-.07-.49,0-.16,0-.25v-.08l0-.11c0-.23-.07-.45-.11-.68h0c0-.23-.08-.46-.13-.68l0-.12,0-.09-.12-.57,0-.14c-.05-.19-.09-.38-.14-.58l0-.12c0-.18-.09-.37-.14-.55a.3.3,0,0,1,0-.1l-.06-.19c0-.17-.09-.33-.14-.5l-.06-.21c-.05-.19-.11-.39-.17-.59l0-.08c-.06-.2-.13-.39-.19-.59l0-.1-.05-.12c-.07-.22-.15-.45-.23-.67s-.15-.42-.23-.63a1.34,1.34,0,0,1-.07-.18l-.2-.51a.69.69,0,0,1-.05-.13l-.23-.56,0-.06a1.54,1.54,0,0,1-.08-.19l-.2-.45c0-.08-.07-.16-.11-.23s-.12-.28-.19-.42a2.4,2.4,0,0,0-.11-.23l-.21-.44-.09-.19c-.11-.2-.21-.41-.32-.62l-.05-.09c-.09-.18-.18-.35-.28-.52s-.07-.14-.11-.2-.15-.28-.23-.41-.09-.15-.13-.22l-.23-.4a2.39,2.39,0,0,1-.13-.21c-.09-.16-.19-.31-.29-.47l-.07-.12c-.13-.2-.25-.4-.38-.59l-.1-.15-.29-.43a1.43,1.43,0,0,0-.14-.2c-.09-.13-.17-.26-.26-.38l-.15-.21-.28-.39-.14-.18L146,52.5c-.15-.2-.3-.39-.46-.58l-.15-.19c-.11-.13-.21-.26-.32-.38l-.19-.23-.29-.33-.21-.24-.24-.27,0,0L143.8,50l-.24-.26-.28-.29-.24-.24-.29-.29-.23-.24-.31-.28-.21-.21,0,0-.09-.08-.41-.36-.16-.15-.35-.3-.17-.15-.4-.33-.11-.09,0,0-.47-.37-.13-.1-.43-.33-.09-.07-.44-.32-.05,0-.42-.29L138,45q-.31-.23-.63-.42l-.16-.1-.19-.12-.39-.25-.29-.17L136,43.7l-.13-.08-.17-.09-.34-.19-.31-.17-.34-.18-.16-.08-.16-.08-.32-.15-.32-.16-.32-.15-.17-.07-.16-.07-.31-.14-.34-.14-.31-.12-.15-.06-.19-.07-.3-.12-.35-.12-.3-.11-.13,0-.22-.07-.3-.1-.35-.1-.3-.09-.11,0-.25-.07-.31-.08-.35-.09-.31-.07-.08,0-.34-.07-.21-.05-.64-.12-11.2,5.47L104.56,51.3l.85.16h0l.12,0c.43.09.85.19,1.28.31l.12,0,.23.06h0l1,.29h0l.23.08.43.14.17.07.47.17h0l0,0c.21.07.41.16.61.24h0l.34.14h0c.54.23,1.07.47,1.6.74l.32.16.46.24.19.1h0l.57.32.07,0h0l.39.23.13.08.54.33h0l.35.22.8.54,0,0h0c.74.52,1.46,1.06,2.16,1.63h0l.06.05.51.43.07.06.28.25h0a1.07,1.07,0,0,1,.16.14h0l.13.13c.16.14.32.28.47.43l.13.11h0l.3.28h0l.23.23h0l.28.28h0l.11.12c.31.32.61.64.91,1h0l.25.27c.4.45.8.92,1.19,1.4h0c.16.19.31.39.46.58l.3.39c.08.12.17.23.26.35h0l.13.18.3.41.05.07.21.31h0l.14.2h0l.29.43h0s.07.1.1.16h0c.2.31.4.62.59.94l.14.22h0a2.39,2.39,0,0,1,.13.21h0c0,.08.09.16.14.24l.09.16c.55,1,1.06,1.93,1.53,2.92h0l.12.27.18.38h0l.2.45h0l.08.2h0s.05.11.08.17l.27.66c.05.14.11.28.16.43h0s0,.11.07.17h0c.08.21.16.42.23.64l.24.67,0,.12c0,.1.06.2.1.3l.21.67c0,.13.08.26.11.39h0c.15.5.29,1,.41,1.49v.06c.06.22.11.45.16.67v0h0l0,.13.09.43c.07.33.14.66.2,1V80c0,.21.07.41.1.62l0,.19h0l0,.08c0,.24.07.48.1.72h0l0,.27V82l.06.46h0v.09l0,.27c.07.65.12,1.3.14,2h0c0,.1,0,.2,0,.29,0,.35,0,.7,0,1s0,.66,0,1c0,.11,0,.22,0,.34h0c0,.11,0,.23,0,.35h0v.09c0,.24,0,.47,0,.71s0,.21,0,.32h0l0,.33h0c0,.07,0,.13,0,.2,0,.5-.1,1-.17,1.47a.77.77,0,0,0,0,.15h0a3.06,3.06,0,0,0-.05.32h0c0,.12,0,.25-.07.37h0c0,.14,0,.28-.07.42l-.06.28h0c-.06.34-.13.68-.21,1l-.09.36c0,.17-.09.35-.14.53l0,.12h0c0,.13-.07.25-.1.38h0c0,.1-.07.21-.1.32h0c0,.12-.07.24-.11.36h0c0,.1-.06.2-.1.3h0c-.12.37-.25.74-.38,1.1l-.2.51c-.06.16-.13.31-.19.47s-.09.21-.14.31h0a1.42,1.42,0,0,0-.08.18c-.14.3-.27.6-.42.89h0l-.24.48,0,0a.47.47,0,0,0,0,.1h0l-.22.41h0l-.09.16h0l-.26.46h0l0,0h0c-.09.14-.18.28-.26.43l-.14.21h0l-.12.18-.09.15c-.22.33-.44.64-.67,1l-.06.08h0l-.18.24h0l-.17.22,0,0-.19.24h0l-.18.22c-.12.14-.23.28-.35.41l-.1.12h0c-.09.11-.19.21-.28.31l0,0c-.36.39-.73.78-1.11,1.14h0l-.42.38-.1.09c-.13.12-.27.25-.41.36l0,0c-.13.11-.26.22-.4.32a.39.39,0,0,1-.1.08l-.43.34-.07,0c-.12.09-.25.19-.39.28l-.09.07-.07,0,0,0,.41.07,19.27-9.42A21.11,21.11,0,0,0,146.2,95l.49-.48.15-.16.32-.33.18-.19c.09-.11.19-.21.28-.31l.18-.21c.09-.11.18-.21.26-.32l.1-.11.09-.12.19-.24.2-.25.18-.25a2.48,2.48,0,0,0,.19-.26l.18-.25.19-.27a2.2,2.2,0,0,1,.17-.25l.07-.12.14-.21.09-.15.3-.5,0,0,.27-.46.09-.16.1-.18c0-.08.08-.15.11-.22l.06-.11c.09-.17.18-.34.26-.51l.06-.11.21-.45,0-.12,0-.06.15-.34a1.54,1.54,0,0,0,.08-.19c.09-.2.17-.4.25-.6l.15-.38s0-.08,0-.13.09-.26.14-.39l.11-.3c0-.13.09-.27.13-.41a1.72,1.72,0,0,0,.07-.21l0-.08c0-.12.07-.25.11-.37l.09-.32c0-.12.07-.25.11-.37s.05-.18.07-.26l0-.06a3.38,3.38,0,0,1,.08-.34l.09-.35c0-.12,0-.23.07-.34s.05-.19.07-.29v-.07l.06-.32c0-.12,0-.25.08-.37s0-.22.05-.33a2.74,2.74,0,0,0,0-.28s0-.07,0-.1,0-.21,0-.32l.06-.38c0-.11,0-.22,0-.33l0-.26s0-.08,0-.12l0-.34c0-.12,0-.25,0-.38l0-.34a2,2,0,0,1,0-.23v-.15l0-.35c0-.13,0-.26,0-.39s0-.23,0-.35a1.27,1.27,0,0,1,0-.2v-.44c0-.22,0-.45,0-.68S154,74.87,153.94,74.74Z"/><path class="cls-2" d="M72.81,128.43l-.31.16,0,0-.47.26-.08,0-.3.19-.12.07-.29.2,0,0-.43.31-.08.06-.29.23-.11.09-.27.23-.08.07-.41.38h0l-.27.26a.94.94,0,0,1-.1.1l-.24.26-.06.07-.36.41a1.83,1.83,0,0,1-.13.16l-.12.15-.1.14-.22.28,0,.06-.34.48-.09.13-.26.43-.06.1c-.09.14-.17.29-.25.43l-.06.12-.18.34-.08.17-.18.38-.06.13-.12.28a1.22,1.22,0,0,0-.07.17l-.12.29-.06.16,0,.13,0,.12,0,.08-.12.36-.06.16-.11.38a2.45,2.45,0,0,0-.08.29,1.21,1.21,0,0,0,0,.18l0,.11,0,.12v0l-.09.38c0,.06,0,.13,0,.2s0,.24-.07.36,0,.18,0,.27,0,.16,0,.24,0,.13,0,.19l0,.1c0,.13,0,.27,0,.4l0,.18c0,.14,0,.27,0,.41a2.11,2.11,0,0,1,0,.25,2,2,0,0,1,0,.25c0,.07,0,.14,0,.21a.53.53,0,0,1,0,.13c0,.13,0,.25,0,.37s0,.12,0,.18V143h0v.36c0,.11,0,.21,0,.32s0,.11,0,.16,0,.16,0,.23,0,.16,0,.24,0,.17,0,.26a1.64,1.64,0,0,1,0,.23l0,.26c0,.07,0,.15,0,.22a2.7,2.7,0,0,0,0,.28,1.8,1.8,0,0,0,0,.22,2.36,2.36,0,0,1,0,.28l0,.2c0,.15,0,.3.08.44s0,.06,0,.08.07.35.1.52a.3.3,0,0,1,0,.1c0,.19.09.39.13.58l0,.05c0,.14.06.27.1.41h0a.83.83,0,0,0,0,.15h0c0,.18.1.35.15.53a1.09,1.09,0,0,0,0,.17v0c.06.19.11.37.17.55l0,.1h0l.09.26.06.17.09.24,0,.12.12.3.06.16.12.28.09.22c0,.1.08.19.13.29l.06.16.42.87,0,0c.06.14.13.27.2.4a1.09,1.09,0,0,1,.08.15l.15.28.1.17.14.25.06.1.19.32.07.11.18.3h0l.33.52,0,.06L69,156l.13.18.21.29.07.1c.12.16.24.31.35.47l0,0c.12.16.25.31.37.46l.14.17.17.2.11.13.2.23h0l.14.15.17.18.14.15c.09.11.19.21.29.31l0,0,.25.25.08.07.19.19.14.13.47.43.06.05a.27.27,0,0,1,.08.07l.45.38.07.05h0c.12.1.24.2.37.29l0,0,.42.32.11.07h0l.4.28,0,0,.37.24.16.1.26.17.15.08.23.14.18.1.21.12.19.1.21.11.19.1.27.13.06,0,.28.13h0l.2.09.19.08.21.09.19.07h0l.21.09.19.07.18.06.22.08h0l.22.07.19.06.22.07.19.06.22.06h0l.19.05.22.05.19,0,.27.06.13,0,.4.08,14.92-7.3,7.46-3.65-.39-.07-.13,0-.27-.06-.19,0-.22-.06-.19-.05-.22-.06-.19-.05-.22-.07-.19-.06-.22-.07-.19-.07-.21-.08-.19-.07-.21-.08-.19-.08-.21-.09-.19-.08-.2-.09-.21-.09-.19-.1-.21-.1-.19-.09-.21-.12-.19-.1-.21-.11-.18-.11-.24-.13-.17-.11-.23-.15-.16-.1a3.87,3.87,0,0,1-.37-.24l-.05,0-.42-.29-.1-.08-.34-.25-.14-.11-.36-.28-.07-.06-.48-.41-.11-.09c-.16-.14-.32-.28-.47-.43l-.14-.13-.19-.18-.15-.15-.18-.18-.15-.15-.17-.18-.15-.16-.17-.18-.14-.16-.18-.2c0-.05-.09-.1-.13-.16l-.18-.2-.13-.16-.17-.21-.13-.17-.16-.2-.14-.18-.15-.21-.13-.17-.15-.22-.13-.18-.15-.21-.12-.19L91,144.4l-.12-.18a1.76,1.76,0,0,1-.14-.23,1.74,1.74,0,0,1-.11-.18l-.15-.24-.1-.17-.14-.25-.1-.18-.15-.27a1.09,1.09,0,0,0-.08-.15c-.06-.13-.13-.25-.19-.38l0,0-.21-.44s-.05-.09-.07-.14-.09-.2-.14-.3,0-.12-.07-.17l-.12-.28-.09-.21-.09-.22-.09-.22-.09-.22a2,2,0,0,0-.08-.22c0-.08,0-.15-.08-.22l-.08-.23-.07-.22a.49.49,0,0,1,0-.11c-.06-.18-.12-.36-.17-.54s0-.09,0-.13c-.06-.21-.12-.41-.17-.62a.83.83,0,0,1,0-.15c0-.13-.07-.27-.11-.41a1.36,1.36,0,0,0,0-.17c0-.15-.07-.31-.1-.46s0-.07,0-.1-.07-.34-.1-.51,0-.08,0-.13-.05-.26-.07-.39l0-.21c0-.09,0-.19,0-.28l0-.22,0-.27a2,2,0,0,1,0-.23l0-.26a2,2,0,0,0,0-.23,2.11,2.11,0,0,0,0-.25c0-.08,0-.16,0-.24s0-.16,0-.24a1.93,1.93,0,0,1,0-.24c0-.08,0-.15,0-.23V132c0-.22,0-.44,0-.65s0-.37,0-.56a.66.66,0,0,0,0-.14l0-.43s0-.1,0-.15,0-.36,0-.54c0,0,0,0,0-.08l.06-.46,0-.15c0-.15,0-.29.07-.43v-.06l-6.18-1.09A13.61,13.61,0,0,0,72.81,128.43Z"/><path class="cls-2" d="M67.6,117.64l.2-.09.19-.09,0,0,.14-.06.2-.09.2-.09.07,0,.29-.12,0,0,.17-.07.27-.1.12,0h0l.41-.14.12,0,0,0,.68-.21.78-.22.39-.09h0l.17,0h0l.23-.05.34-.08.57-.1.12,0h0l.47-.07.14,0h0l.56-.07h0c.1,0,.21,0,.31,0l.29,0h.11l.56,0,.58,0h.61c.38,0,.77,0,1.15,0l.24,0h0l1.06.08h.06l.6.07h0l.26,0,.42.06.41.07,13-6.35-7.36-1.3Z"/><polygon class="cls-2" points="81.52 164.54 127.06 172.57 149.45 161.63 103.91 153.59 96.44 157.24 81.52 164.54"/><polygon class="cls-2" points="127.13 184 149.51 173.06 149.45 161.63 127.06 172.57 127.13 184"/><path class="cls-2" d="M121.25,108l-.33.23-.09,0-.39.26-.1.06-.46.27-.1.06-.41.23-.08,0-.48.25-.11.05a20.68,20.68,0,0,1-3.38,1.34,22.55,22.55,0,0,1-10.43.52l-10.66-1.88-13,6.35,45.55,8,22.38-11-27.52-4.85-.41-.07Z"/><polygon class="cls-2" points="126.86 135.33 149.25 124.38 149.18 112.95 126.8 123.9 126.86 135.33"/></g></svg>