<svg xmlns="http://www.w3.org/2000/svg" viewBox="0 0 80.87 83.61"><defs><style>.cls-1{fill:#a09db0;}</style></defs><title>slut_project</title><g id="OBJECT"><path class="cls-1" d="M77.44,55.26a68.73,68.73,0,0,1-10.07-3.9,15.06,15.06,0,0,1-1.79-1.17,3.06,3.06,0,0,1-1.1-3.47,21.41,21.41,0,0,0,1.12-6.87,22.8,22.8,0,0,0-.14-2.49A2.14,2.14,0,0,1,67,35.07a3,3,0,0,1,.57-.15A51.09,51.09,0,0,1,77.1,35a3.36,3.36,0,1,0-1.34-6.19A54.8,54.8,0,0,1,68,32.57a11.9,11.9,0,0,1-1.61.39A2.1,2.1,0,0,1,64,31.69a21.73,21.73,0,0,0-1.85-3.55,2.71,2.71,0,0,1,.64-3.62l.26-.19L65,22.94A71.4,71.4,0,0,1,74,17.6a5,5,0,1,0-6.66-6.77,89.35,89.35,0,0,1-5.71,9.56l-1.07,1.5a2.61,2.61,0,0,1-3.69.57,21.8,21.8,0,0,0-3-1.9,4.11,4.11,0,0,1-2.16-4.5l0-.19A35.83,35.83,0,0,1,55.11,7a4.19,4.19,0,1,0-7.82-1,69,69,0,0,1,1,7.68,4.09,4.09,0,0,1-4.13,4.4h-.26a21.75,21.75,0,0,0-5.39.68,2.18,2.18,0,0,1-2.67-1.57l-.66-2.71a91.44,91.44,0,0,1-1.53-10,5,5,0,0,0-4-4.37,4.88,4.88,0,0,0-5.26,2.34,5,5,0,0,0,.55,5.82,65.61,65.61,0,0,1,6.32,8.16s.71,1.18,1.36,2.31a2.2,2.2,0,0,1-.71,2.94,22.11,22.11,0,0,0-5.44,5.13,1.74,1.74,0,0,1-2.34.46L23.76,27a54.81,54.81,0,0,1-6.58-5.69A3.39,3.39,0,1,0,14.12,27a55,55,0,0,1,8.53,2.1h0l.08,0a1.77,1.77,0,0,1,1,2.37,21.61,21.61,0,0,0-1.66,8.33c0,.34,0,.69,0,1a2.76,2.76,0,0,1-2.45,2.9h-.18l-2.2.18A85.76,85.76,0,0,1,5.64,44a5.35,5.35,0,1,0,2.63,9.82,85.12,85.12,0,0,1,12.16-6.35l.07,0a2.74,2.74,0,0,1,3.56,1.45,21.78,21.78,0,0,0,3.38,5.26,2.69,2.69,0,0,1-.26,3.78l-.13.11a59.3,59.3,0,0,1-7.9,5.22,3.73,3.73,0,1,0,5.12,4.9A54.25,54.25,0,0,1,28.9,59.9l.1-.14a6.14,6.14,0,0,1,.54-.64,2.74,2.74,0,0,1,3.39-.48,21.77,21.77,0,0,0,5.18,2.18,1.83,1.83,0,0,1,1.3,2.12A10.44,10.44,0,0,1,39,64.67a77.93,77.93,0,0,1-5.45,11.4,5,5,0,1,0,9.21,2,77.68,77.68,0,0,1-.31-12.76h0a9.25,9.25,0,0,1,.3-1.78,2.82,2.82,0,0,1,2.4-2.11c1.35-.17,3.22-.43,4.83-.8a2.56,2.56,0,0,1,3.09,2.14l.31,2.21a50.11,50.11,0,0,1,.33,7.35,3.73,3.73,0,1,0,6.71-2.19,28.26,28.26,0,0,1-2.49-3.74L56.18,63.1a18.36,18.36,0,0,1-.94-2.39,2.61,2.61,0,0,1,1-3,21.82,21.82,0,0,0,4.38-4,3,3,0,0,1,4.17-.47l.1.09,2.51,2.33a40,40,0,0,1,5.31,6.3,4.34,4.34,0,1,0,4.73-6.67Zm-30-33.53a2.72,2.72,0,1,1-2.72,2.72A2.72,2.72,0,0,1,47.42,21.73ZM46.12,41a2.49,2.49,0,1,1-2.49-2.49A2.48,2.48,0,0,1,46.12,41Zm-18.57.68a2.72,2.72,0,1,1,2.72,2.72A2.72,2.72,0,0,1,27.55,41.66ZM32.92,53a2.72,2.72,0,1,1,2.72-2.71A2.71,2.71,0,0,1,32.92,53Zm4.14-17.66a5.44,5.44,0,1,1,5.44-5.44A5.44,5.44,0,0,1,37.06,35.32ZM45.22,58a4.08,4.08,0,1,1,4.07-4.08A4.08,4.08,0,0,1,45.22,58Zm8.54-8.61a2.72,2.72,0,1,1,2.72-2.72A2.72,2.72,0,0,1,53.76,49.36Zm.06-9.51a5,5,0,1,1,5-5A5,5,0,0,1,53.82,39.85Z"/></g></svg>