<svg xmlns="http://www.w3.org/2000/svg" viewBox="0 0 179.5 179.5"><defs><style>.cls-1{fill:#fff2c9;}</style></defs><title>slut_project</title><g id="OBJECT"><g id="flA45a.tif"><path class="cls-1" d="M179.5,67.26v45a8.58,8.58,0,0,0-.1.87c-.16,4.66-.31,9.32-.48,14a67.46,67.46,0,0,1-3.4,19.5A46,46,0,0,1,162.85,166c-8.47,7.75-18.7,11.33-29.88,12.47-5.57.57-11.2.62-16.81.9l-3.92.15h-45c-.65-.05-1.3-.13-2-.14-7.58-.16-15.17-.2-22.68-1.42a51.32,51.32,0,0,1-18.81-6.61C12.34,164.31,5.42,154,2.35,141,.77,134.34.53,127.51.25,120.69.15,118.14.08,115.58,0,113V66.47c0-.32.09-.64.1-1,.09-2.85.16-5.71.25-8.57a88.79,88.79,0,0,1,2.2-19.22A48.32,48.32,0,0,1,13,17.22C20.84,8.3,30.88,3.54,42.42,1.57A138.73,138.73,0,0,1,59.69.22C62,.12,64.21.07,66.47,0H113a5.67,5.67,0,0,0,.57.1c3.35.1,6.7.18,10.05.29a84.79,84.79,0,0,1,19.09,2.39,46.65,46.65,0,0,1,25.59,16.66,49.76,49.76,0,0,1,9.22,21c1.28,6.14,1.43,12.38,1.69,18.61C179.36,61.76,179.42,64.51,179.5,67.26ZM89.77,16.38V16c-11.17.18-22.34.31-33.51.56a61.28,61.28,0,0,0-16.91,2.32A29.52,29.52,0,0,0,20.83,34.47a42.94,42.94,0,0,0-4,17.33q-.49,10.79-.59,21.57-.15,15.39,0,30.76c.05,6.94.27,13.87.47,20.79A53.9,53.9,0,0,0,19.55,142a29.17,29.17,0,0,0,15.12,16.73A43.85,43.85,0,0,0,52,162.69c7.12.31,14.25.57,21.37.58,17.85,0,35.69.36,53.52-.54a56.94,56.94,0,0,0,12-1.78,29.83,29.83,0,0,0,18.46-13.46,37,37,0,0,0,5.13-17.5c.47-8,.76-16.08.81-24.12.09-13.94,0-27.87-.14-41.8a122.59,122.59,0,0,0-1.19-18.86,35,35,0,0,0-5.62-14.77C151,22.88,143.4,19.05,134.46,17.56a109.82,109.82,0,0,0-16.69-1.15C108.44,16.29,99.1,16.38,89.77,16.38Z"/><path class="cls-1" d="M43.65,89.65a46.11,46.11,0,1,1,46.2,46.22A46,46,0,0,1,43.65,89.65Zm76,.12a29.92,29.92,0,1,0-30.1,29.89A30,30,0,0,0,119.66,89.77Z"/><path class="cls-1" d="M148.43,41.8A10.79,10.79,0,1,1,137.73,31,10.77,10.77,0,0,1,148.43,41.8Z"/></g></g></svg>