<svg xmlns="http://www.w3.org/2000/svg" viewBox="0 0 181.68 180.5"><defs><style>.cls-1{fill:#fff2c9;}</style></defs><title>slut_project</title><g id="OBJECT"><g id="NXYh78.tif"><path class="cls-1" d="M181.68,87.12v7.33c-.07.84-.14,1.68-.2,2.52,0,.37,0,.74,0,1.11a91.77,91.77,0,0,1-1.72,11.79,91.07,91.07,0,0,1-73.54,70.56,4.94,4.94,0,0,1-.86,0,.71.71,0,0,1-.11-.22,2,2,0,0,1,0-.42V117.84a3.07,3.07,0,0,1,.07-.42.21.21,0,0,1,0-.07l.17-.13c.26,0,.62,0,1,0h18.66c.39,0,.78,0,1.24-.06l1.36-8.81c.45-2.89.91-5.77,1.33-8.67s1-5.79,1.3-8.84H106.67c-.26,0-.52,0-.77,0-.63,0-.71-.12-.74-.77v-.34c0-5.37,0-10.74,0-16.11a19.18,19.18,0,0,1,.36-3.63,11.7,11.7,0,0,1,8.94-9.59,18.14,18.14,0,0,1,4.8-.64l10.91,0c.38,0,.77-.06,1.18-.09V37.23c-.4-.09-.75-.18-1.11-.24a137.92,137.92,0,0,0-18.14-1.58,43.86,43.86,0,0,0-12.4,1.4c-9.63,2.66-16.49,8.5-20.27,17.8a40.05,40.05,0,0,0-2.82,15c0,6.59,0,13.18,0,19.77,0,1.43,0,1.43-1.4,1.43H54.76c-.39,0-.77,0-1.13.06-.21,1-.18,25.54,0,26.26.28,0,.58,0,.89,0h21c1.07,0,1.08,0,1.09,1.1v61c0,.23,0,.45,0,.68s-.21.58-.61.52l-.43-.05A88.58,88.58,0,0,1,50,172,90.41,90.41,0,0,1,9.3,130.93,89,89,0,0,1,.24,97.61a90.81,90.81,0,0,1-.08-12A87.52,87.52,0,0,1,2,72,91,91,0,0,1,83.8.27,89.08,89.08,0,0,1,96.56.19,85.1,85.1,0,0,1,109.38,1.9a89.7,89.7,0,0,1,49.91,29.22A88.92,88.92,0,0,1,180,73.21,72,72,0,0,1,181.51,86,7.73,7.73,0,0,0,181.68,87.12Z"/></g></g></svg>