<svg xmlns="http://www.w3.org/2000/svg" viewBox="0 0 233.68 94.82"><defs><style>.cls-1{fill:#fff2c9;}</style></defs><title>slut_project</title><g id="OBJECT"><path class="cls-1" d="M80.23,18.32c-.07,10.54,0,21.08,0,31.62,0,3.19,1,5.87,4,7.36,4.76,2.35,9.82-1.14,9.9-6.89,0-1.77,0-3.54,0-5.31,0-5.31,0-10.62,0-15.94s0-10.74,0-16.12c0-1.79,0-3.58,0-5.37,0-4.76-2.87-7.52-7.57-7.6-2.71,0-5.44-.1-8.15,0a7.48,7.48,0,0,0-7.09,7c-.26,3.63,2.42,7.36,6.19,7.73C80.07,15.09,80.25,16.25,80.23,18.32Z"/><path class="cls-1" d="M50.11,18.61c-.08,10.54,0,21.09,0,31.63,0,3.75,1.71,6.34,4.69,7.37,4.71,1.63,9.1-1.78,9.17-7.27.09-7,0-14,0-21,0-5.37,0-10.75,0-16.12,0-1.8,0-3.59,0-5.38,0-4.19-2.32-7.3-5.94-7.62a61.79,61.79,0,0,0-10.36,0A7.42,7.42,0,0,0,41.1,7.44c-.08,3.46,2.5,7.05,6,7.36C50,15.05,50.13,16.38,50.11,18.61Z"/><path class="cls-1" d="M146.17.42a6.59,6.59,0,0,0-7.83,3.14c-4.3,7.31-8.5,14.68-12.73,22s-8.43,14.53-12.55,21.85c-2.64,4.7,0,10.09,5.15,10.53,3.24.28,5.41-1.38,7-4.13C133.38,39.55,141.63,25.3,149.82,11a19.66,19.66,0,0,0,1.27-3.15C151.15,4.06,149.12,1.32,146.17.42Z"/><path class="cls-1" d="M170.88,57.94c3.33.39,5.59-1.29,7.22-4.13,8.19-14.28,16.44-28.53,24.62-42.82A20.43,20.43,0,0,0,204,7.82c0-3.77-2-6.53-5-7.41-3.12-.94-6.14.26-8,3.37-5.47,9.39-10.87,18.82-16.3,28.23-3,5.14-6,10.25-8.85,15.43C163.38,52,165.89,57.36,170.88,57.94Z"/><path class="cls-1" d="M111,15c4.68.15,9.38.07,14.07,0a2.55,2.55,0,0,0,1.89-.8c2.72-4.48,5.32-9,8.26-14.07-8.72,0-16.77-.17-24.81.08-3.75.12-6.56,3.83-6.45,7.52A7.41,7.41,0,0,0,111,15Z"/><path class="cls-1" d="M174,15.14c4.22.51,6.69-1,8.39-4.87,1.48-3.34,3.57-6.41,5.74-10.21h-4c-6.92,0-13.85-.13-20.75.16-3.9.16-6.7,3.87-6.51,7.71a7.46,7.46,0,0,0,7.22,7.1C167.36,15.15,170.7,14.75,174,15.14Z"/><path class="cls-1" d="M231,71.93c-2.2,0-2.89.8-2.8,2.9.13,2.91,0,5.83,0,8.75a4.53,4.53,0,0,1-2.07-1.68c-2.11-2.84-4.25-5.66-6.29-8.55-1.4-2-3.41-1.5-5.14-1.11-.57.13-1.05,1.94-1.07,3-.1,5.59,0,11.19-.08,16.79,0,2,.92,2.29,2.57,2.26s2.88-.06,2.78-2.3c-.15-3.34,0-6.69,0-10l.57-.1a11.45,11.45,0,0,1,.79.91c2.43,3.32,4.94,6.59,7.24,10,1.38,2.05,3.33,1.69,5.06,1.29.57-.13,1-2,1-3,.11-5.35,0-10.71.09-16C233.72,72.92,233.29,71.93,231,71.93Z"/><path class="cls-1" d="M39.13,76.72c-.7-1.74-1.08-3.24-.19-5.13,1-2.12,0-4-1.79-5.41a4.55,4.55,0,0,0-5.54-.2c-1.81,1.16-3.1,3.11-2.21,5,1.33,2.85.16,5.08-.76,7.49-1.93,5.06-3.88,10.11-6.05,15.76a18.14,18.14,0,0,0,3.48-.05c1-.22,2.52-.57,2.77-1.25.73-1.95,1.92-2.42,3.78-2.27,1.47.12,3,0,4.44.07a2.77,2.77,0,0,1,1.85.85c2,2.86,3.06,3.25,6.65,2.14-.28-.85-.52-1.7-.84-2.53C42.88,86.38,41.06,81.52,39.13,76.72Zm-5-8.8c.83,1,1.74,1.62,1.66,2.09a2.46,2.46,0,0,1-1.5,1.67c-.43.1-1.56-.82-1.58-1.32C32.64,69.71,33.4,69,34.09,67.92ZM31.46,85.59c.87-2.53,1.68-4.84,2.48-7.16l.56,0c.69,1.91,1.4,3.81,2.07,5.73a9.23,9.23,0,0,1,.24,1.4Z"/><path class="cls-1" d="M176.73,72.3a87.4,87.4,0,0,0-9.59-.28c-1.32,0-1.91.57-1.89,1.94,0,.76,0,1.52,0,2.29,0,2.28,0,4.56,0,6.84s0,4.56,0,6.84c0,.76,0,1.52,0,2.28,0,1.46.54,2.09,2,2.06,2.79-.07,5.6.1,8.38-.07,5.9-.36,9.93-4.62,10.25-10.63A10.47,10.47,0,0,0,176.73,72.3Zm-2.1,17.19a6.09,6.09,0,0,1-2.45,0,2.56,2.56,0,0,1-1.52-1.59,33.17,33.17,0,0,1-.07-4.68h0c0-.91,0-1.82,0-2.72-.09-3.74-.09-3.74,3.74-3.6s6,2.4,6.15,6A6.1,6.1,0,0,1,174.63,89.49Z"/><path class="cls-1" d="M85.66,72.32a57.76,57.76,0,0,0-9.85-.21c-.56,0-1.51,1.16-1.55,1.83-.08,1.52-.1,3-.1,4.56s0,3,0,4.58,0,3,0,4.57,0,3,0,4.57.5,2.09,2,2c2.71-.07,5.44.07,8.15,0a10.68,10.68,0,0,0,10.38-10C95.13,78.06,91.57,73.14,85.66,72.32Zm-5,17.12a2,2,0,0,1-1.12-1.5c-.15-1.63-.06-3.27-.06-4.91h0a5.41,5.41,0,0,1,0-1.71C80,79.84,78,77.4,81,76.9c4-.68,7.23,1,8,3.94C90.51,86.3,86.13,90.84,80.62,89.44Z"/><path class="cls-1" d="M67.67,76.93C66.59,73.61,64,72,59.47,72c-2.39,0-4.78,0-7.17,0-1.62,0-2.35.54-2.32,2.31.08,5.92.06,11.85,0,17.78,0,1.56.52,2.14,2.13,2.23,2.26.13,3.48-.43,3.14-3a8,8,0,0,1,0-2.71c.15-.67.66-1.73,1.08-1.77a3,3,0,0,1,2.27.89A17.3,17.3,0,0,1,60.5,91c2,3.63,3.15,4.09,7.47,2.78-.69-1.24-1.34-2.44-2-3.64s-1.47-2.54-2.26-3.9C67.68,83.26,68.81,80.46,67.67,76.93Zm-8,4.86c-.49,0-1,0-1.47,0-2.83,0-3.66-1-2.88-3.74a2,2,0,0,1,1.27-1.12,15.88,15.88,0,0,1,2.93-.07c1.67,0,2.94.54,2.92,2.5S61.22,81.69,59.68,81.79Z"/><path class="cls-1" d="M118.38,81.64c-2.14.09-4.29.1-6.42,0-1.75-.08-2.29.66-2.27,2.33s.35,2.58,2.18,2.38a5,5,0,0,1,1.72,0c.56.14,1.52.53,1.5.77a2.62,2.62,0,0,1-.82,1.81c-2.17,1.57-6,1-7.91-1.14a7.32,7.32,0,0,1-.17-9.13c1.92-2.32,5.58-3.22,7.73-1.25,2.53,2.32,4.16,1,6.22-.51C117.72,72.54,113,70.71,107.9,72a11.45,11.45,0,0,0-8,15.1c2.17,6.3,9.55,9.32,16.11,6.59,3.65-1.52,4.48-2.75,4.48-6.66,0-1.07-.06-2.14,0-3.21C120.61,82.28,120,81.58,118.38,81.64Z"/><path class="cls-1" d="M198.37,76.85c2.22,0,4.44,0,6.66,0,1.74,0,2-.93,2-2.36s0-2.5-1.84-2.49c-4.12,0-8.23,0-12.34,0-1.33,0-1.9.59-1.88,2,0,3,0,6.08,0,9.13s0,6.09,0,9.13c0,1.48.59,2,2,2,4-.06,8.07-.07,12.1,0,1.83,0,1.89-1.06,1.91-2.41s-.22-2.41-2-2.34c-2.22.07-4.45,0-6.67,0-1.58,0-1.93-.76-1.94-2.14s.48-2.12,2-2.07c2.22.07,4.45,0,6.67,0,1.89,0,1.78-1.25,1.8-2.53s-.24-2.24-1.87-2.2c-2.22.06-4.44,0-6.66,0-1.36,0-1.93-.51-1.93-1.88S197,76.82,198.37,76.85Z"/><path class="cls-1" d="M143.68,72c-1.58,0-2.91,0-2.81,2.3.15,3.54.1,7.09,0,10.62-.1,3.29-1.7,4.92-4.6,5s-4.72-1.61-4.81-5c-.09-3.54-.15-7.09,0-10.62.08-2-.89-2.34-2.53-2.28s-3-.11-2.88,2.22c.14,3.21,0,6.42,0,9.63,0,8.45,5.52,12.63,13.7,10.41a8.13,8.13,0,0,0,6.36-7.85c.11-2,0-4.11,0-6.17h0c0-2-.11-4,0-5.93S145.33,71.94,143.68,72Z"/><path class="cls-1" d="M15.75,75.5c-.56,1.54-1.14,3.08-1.7,4.63q-1.28,3.5-2.53,7A107.82,107.82,0,0,1,6.77,75.49c-1.36-3.78-2.51-4.31-6.77-3a9.52,9.52,0,0,0,.31,1.36c2.35,6.14,4.82,12.25,7,18.45.78,2.2,2.3,1.94,3.92,2s3.16.24,3.92-2c1.75-5.05,3.81-10,5.72-15,.61-1.58,1.17-3.19,1.75-4.78C18.24,71.18,17.11,71.71,15.75,75.5Z"/><path class="cls-1" d="M155.74,72c-1.75-.06-2.82.33-2.74,2.42.12,2.94,0,5.9,0,8.86s.07,5.91,0,8.86c-.07,2.28,1.38,2.13,2.93,2.17s2.61-.26,2.58-2.26c-.09-5.9-.12-11.81,0-17.72C158.58,72.05,157.33,72,155.74,72Z"/></g></svg>