<svg xmlns="http://www.w3.org/2000/svg" viewBox="0 0 64 64"><defs><style>.cls-1{fill:#fff2c9;}</style></defs><title>slut_project</title><g id="TEXT"><path class="cls-1" d="M32,0A32,32,0,1,0,64,32,32,32,0,0,0,32,0ZM43.23,42.31v6.75H20.77a21,21,0,0,1,1.09-6.82,16.74,16.74,0,0,1,4-6.24l6-6.07a9.41,9.41,0,0,0,1.85-2.48,7.39,7.39,0,0,0,.56-3.11,5.14,5.14,0,0,0-.63-3A2,2,0,0,0,32,20.53a2.53,2.53,0,0,0-.91.17,1.85,1.85,0,0,0-.8.65,3.91,3.91,0,0,0-.58,1.37,10.62,10.62,0,0,0-.21,2.34v1.45H21.06a26.22,26.22,0,0,1,.48-4.75,8.53,8.53,0,0,1,1.64-3.66,7.6,7.6,0,0,1,3.37-2.34,16.36,16.36,0,0,1,5.69-.82,17.39,17.39,0,0,1,5.49.72,8.31,8.31,0,0,1,3.35,2,6.8,6.8,0,0,1,1.69,3,13.52,13.52,0,0,1,.46,3.61,13.19,13.19,0,0,1-1.16,5.83A15.89,15.89,0,0,1,39,34.36l-5.3,5.16c-.39.38-.81.82-1.28,1.3a3.76,3.76,0,0,0-.94,1.49Z"/></g></svg>