<svg xmlns="http://www.w3.org/2000/svg" viewBox="0 0 151.95 177.23"><defs><style>.cls-1{fill:none;}.cls-2{fill:#fff2c9;}</style></defs><title>slut_project</title><g id="OBJECT"><path class="cls-1" d="M139.11,12.84H38.05v94.78H66.4v21.84l.29.14a11.25,11.25,0,0,1,.76-.92c6.74-6.76,13.5-13.49,20.23-20.26a2.57,2.57,0,0,1,2-.84c7.65,0,15.3,0,22.95,0a2.56,2.56,0,0,0,2-.81q11.81-11.86,23.67-23.66a2.56,2.56,0,0,0,.83-2q0-33.47,0-66.92ZM85.31,72.73H72.84V35H85.31Zm34.74,0H107.58V35h12.47Z"/><path class="cls-2" d="M151.94,1.73c0-1.71,0-1.71-1.71-1.71Q91.58,0,32.93,0A2.88,2.88,0,0,0,30.7.91Q15.86,15.79,1,30.62A3,3,0,0,0,0,33q0,55.5,0,111c0,1.63,0,1.64,1.67,1.64H37.9v31.63c.59-.56.93-.87,1.26-1.2q14.66-14.64,29.3-29.3a3.45,3.45,0,0,1,2.72-1.15c6.25.06,12.5-.2,18.72.12,3.63.18,6-1,8.56-3.58q26.21-26.49,52.69-52.72a2.69,2.69,0,0,0,.8-2.14Q151.94,44.5,151.94,1.73ZM138.3,83.15Q126.43,95,114.63,106.81a2.56,2.56,0,0,1-2,.81c-7.65,0-15.3,0-22.95,0a2.57,2.57,0,0,0-2,.84c-6.73,6.77-13.49,13.5-20.23,20.26a11.25,11.25,0,0,0-.76.92l-.29-.14V107.62H38.05V12.84H139.11v1.39q0,33.45,0,66.92A2.56,2.56,0,0,1,138.3,83.15Z"/><path class="cls-2" d="M107.58,72.74h12.47V35H107.58Z"/><path class="cls-2" d="M72.84,72.73H85.31V35H72.84Z"/></g></svg>