<svg xmlns="http://www.w3.org/2000/svg" viewBox="0 0 120.92 155.47"><defs><style>.cls-1{fill:#fff;}.cls-2{fill:#3e2f80;}.cls-3{fill:#ff931e;}.cls-4{fill:#262626;}</style></defs><title>loggor</title><g id="TEXT"><path class="cls-1" d="M48.39,136l-.4-.07-.12,0-.27-.06-.19,0-.22-.06-.2-.05-.22-.06-.19-.06-.21-.06-.19-.06-.22-.07h0l-.22-.07-.18-.07-.19-.07-.21-.08L45,135l-.2-.09-.19-.08-.2-.09h0l-.28-.13-.06,0-.27-.13-.19-.09-.22-.12-.18-.1L43,134l-.18-.1-.24-.14-.14-.08-.27-.17-.16-.1-.36-.24,0,0-.41-.29h0l-.1-.08-.42-.31-.06-.05-.36-.29a.18.18,0,0,1-.07-.05l-.45-.38-.08-.07-.06-.05c-.16-.14-.32-.28-.47-.43l-.14-.13-.2-.18-.07-.08-.25-.25,0,0-.29-.3-.14-.15-.16-.18-.14-.16h0l-.21-.23-.11-.13c-.05-.07-.11-.13-.17-.2A2.09,2.09,0,0,0,37,129l-.36-.45,0,0c-.12-.15-.24-.31-.35-.47l-.07-.09-.21-.3-.13-.18-.15-.21,0-.07-.34-.51h0c-.07-.1-.13-.2-.19-.3l-.07-.11-.18-.31-.06-.11-.15-.25-.09-.17-.15-.27a1.09,1.09,0,0,1-.08-.15l-.21-.41v0c-.15-.29-.29-.59-.42-.88,0,0-.05-.1-.07-.16s-.08-.19-.13-.29a1.8,1.8,0,0,1-.08-.21l-.12-.28-.06-.16-.12-.31-.05-.12a1.55,1.55,0,0,0-.08-.23l-.06-.17-.09-.27h0l0-.11c-.06-.18-.12-.36-.17-.54l0,0a1.54,1.54,0,0,0,0-.17l-.15-.53h0a.83.83,0,0,0,0-.15c0-.13-.07-.27-.1-.41v0c-.05-.19-.09-.39-.13-.58a.36.36,0,0,1,0-.1c0-.17-.07-.34-.1-.51s0-.06,0-.09-.05-.29-.07-.43l0-.21c0-.09,0-.19,0-.28l0-.22,0-.28,0-.22a2.28,2.28,0,0,0,0-.26c0-.07,0-.15,0-.23s0-.17,0-.25,0-.16,0-.24,0-.16,0-.24v-.16c0-.1,0-.21,0-.31s0-.25,0-.37h0c0-.2,0-.4,0-.6v-.18c0-.13,0-.25,0-.37a.53.53,0,0,1,0-.13,1.7,1.7,0,0,1,0-.22,1.94,1.94,0,0,1,0-.24,2.28,2.28,0,0,1,0-.26c0-.13,0-.27,0-.4a1.23,1.23,0,0,0,0-.19l.06-.4v-.1l0-.19c0-.08,0-.16,0-.24s0-.17.05-.26,0-.25.07-.37a1.94,1.94,0,0,1,0-.2c0-.13.05-.25.08-.38l0,0c0-.07,0-.15.05-.22a1.33,1.33,0,0,0,0-.19l.09-.29c0-.13.07-.25.11-.37l0-.17.12-.35,0-.09.09-.24c0-.06,0-.12.07-.17l.11-.29a1.11,1.11,0,0,0,.07-.16c0-.1.08-.19.13-.29s0-.08.05-.13l.18-.38.09-.17.17-.33.07-.13.24-.42.06-.1.27-.43.08-.13c.11-.17.23-.33.34-.49l0,0,.21-.29.11-.13.12-.16.13-.15a4.71,4.71,0,0,1,.36-.42l.06-.07.24-.26.1-.1c.09-.09.17-.18.26-.26h0l.4-.37.09-.08.27-.23.11-.09.28-.22.08-.06.44-.32,0,0,.3-.19.12-.08.3-.19.08,0,.46-.27,0,0,.32-.16a13.6,13.6,0,0,1,8.5-1.13l6.17,1.09,39.37,6.94-.06-11.43-45.54-8-.41-.07-.42-.06-.26,0-.6-.08h-.07q-.52-.06-1-.09h-.24c-.39,0-.77,0-1.16,0h-.6l-.58,0-.56,0h-.12l-.28,0-.31,0-.57.07-.13,0-.47.07-.12,0-.57.11-.34.07-.24.05-.17,0-.39.1-.78.21-.67.22-.15,0-.42.15-.43.16-.17.07-.4.16-.21.09-.37.17-.19.09A21,21,0,0,0,29.2,92.8a23.7,23.7,0,0,0-5.7,8.53,29.91,29.91,0,0,0-2,11.33,36.18,36.18,0,0,0,2.17,12.07,38.35,38.35,0,0,0,5.8,10.57A35,35,0,0,0,38,143.24a28.22,28.22,0,0,0,10.45,4.2l45.55,8L93.94,144Z"/><path class="cls-1" d="M86.36,80.71l.08,0,.42-.24.1-.05.46-.28.09-.06.4-.25.09-.06.44-.31.1-.07.39-.28L89,79l.43-.33.1-.08.39-.33,0,0,.42-.36.1-.09.41-.38h0c.39-.37.76-.75,1.12-1.15h0l.28-.32a1.31,1.31,0,0,0,.11-.12l.34-.4.19-.23.19-.24,0,0,.18-.23.18-.24.06-.08q.34-.47.66-1l.1-.15.12-.18.13-.21c.09-.14.18-.28.26-.43l0,0c.09-.15.18-.3.26-.46l.09-.16c.08-.13.15-.27.22-.4l.06-.11,0,0c.08-.16.16-.31.24-.48s.28-.58.41-.88l.09-.19c0-.11.09-.21.13-.31l.2-.48.19-.51c.14-.36.27-.73.39-1.1l.09-.29.12-.37.09-.32c0-.12.07-.25.11-.37l0-.13.14-.53a3.59,3.59,0,0,1,.08-.35c.08-.34.15-.68.22-1a2.74,2.74,0,0,0,0-.28c0-.14.05-.28.08-.42l.06-.38c0-.1,0-.21.05-.32s0-.09,0-.14c.07-.49.13-1,.18-1.48a1.23,1.23,0,0,1,0-.19c0-.11,0-.23,0-.34l0-.32c0-.23,0-.47,0-.71v-.09c0-.12,0-.23,0-.35s0-.22,0-.33c0-.33,0-.66,0-1s0-.69,0-1c0-.1,0-.2,0-.3,0-.65-.08-1.3-.14-2l0-.27V53.9c0-.16,0-.31,0-.47v-.06a2.51,2.51,0,0,0,0-.27c0-.24-.06-.48-.1-.72v-.07l0-.2c0-.2-.07-.41-.11-.61v-.06c-.06-.33-.12-.67-.19-1L97.78,50l0-.14v0c0-.22-.11-.45-.16-.67v0c-.13-.5-.26-1-.41-1.5L97,47.25l-.21-.68c0-.1-.06-.2-.1-.3l0-.12c-.07-.22-.15-.45-.23-.67l-.24-.64-.06-.17L96,44.25l-.27-.66-.07-.18-.09-.19c-.06-.15-.13-.3-.2-.45s-.11-.26-.17-.39l-.12-.26c-.47-1-1-2-1.53-2.93l-.1-.15-.14-.25-.12-.2L93,38.36l-.59-.94h0l-.1-.15-.29-.43-.14-.2-.22-.32,0-.06c-.09-.14-.19-.28-.29-.41l-.14-.19L91,35.3c-.1-.12-.19-.25-.29-.38l-.46-.59c-.39-.48-.79-.94-1.2-1.4l-.24-.27c-.3-.33-.61-.65-.92-1a.57.57,0,0,0-.11-.11l-.29-.29-.24-.24-.3-.28-.12-.12-.47-.43-.14-.13L86,30l-.28-.25-.07-.05-.52-.44,0,0c-.7-.58-1.42-1.12-2.16-1.63l0,0L82.1,27l-.36-.23-.54-.33-.13-.08-.38-.22-.07,0-.57-.32-.2-.11-.46-.24-.31-.16c-.53-.26-1.07-.51-1.6-.74l-.34-.14-.61-.24h0L76,23.94l-.17-.06-.43-.15-.22-.07-1-.29L74,23.31l-.13,0c-.42-.11-.85-.22-1.28-.31l-.12,0-.84-.17L4.57,10.94l.06,11.43L71.7,34.2c9.17,1.62,16.67,11.29,16.73,21.55a19.72,19.72,0,0,1-.31,3.66,17.09,17.09,0,0,1-1.69,4.93,13.85,13.85,0,0,1-6.2,6.06l-.12,0-.23.11-.12,0-.26.11-.1,0-.26.1-.17.06-.19.06-.17.06-.19.06-.18.05-.19.06-.18,0-.21,0-.11,0-.26.06-.1,0-.34.06h-.07l-.25,0-.41.06h-.06l-.47,0h-.15l-.29,0h-1.5l-.22,0h-.2l-.23,0-.2,0-.21,0-.21,0-.21,0-.27,0-29-5.11-.34-.06-.47-.07-.14,0-.48-.08h-.06l-.31,0-.24,0-.28,0-.14,0-.41,0-.26,0-.3,0-.26,0-.84-.06h-.16l-.42,0h-.23c-.75,0-1.5,0-2.24,0h-.8l-.36,0H34l-1.11.08h-.07l-.6.06L32,66l-.54.07h-.1l-1.27.2H30l-1.44.28-.11,0-.61.14-.12,0-.8.21-.06,0-.35.09-.4.12h0l-.6.18-.07,0c-.45.14-.89.29-1.33.45l-.08,0c-.81.3-1.6.63-2.38,1h0l-.67.31a34.06,34.06,0,0,0-8.51,5.94A38.27,38.27,0,0,0,3.29,88.84,48.37,48.37,0,0,0,0,107.06l.17,30.52,10.2,1.8-.16-30.52V108a1.93,1.93,0,0,1,0-.24c0-.17,0-.35,0-.53s0-.3,0-.44a1.55,1.55,0,0,1,0-.22c0-.23,0-.45,0-.68h0l0-.46c0-.19,0-.39.05-.58a1,1,0,0,1,0-.17c0-.19,0-.37,0-.56s0-.3.05-.45l.06-.42.06-.45.06-.41c0-.15.05-.3.08-.44s0-.28.07-.42.05-.29.08-.44l.09-.41c0-.14.05-.28.08-.42s.07-.29.1-.44.05-.21.08-.31.08-.35.13-.53.07-.26.1-.39.08-.31.13-.46,0-.09,0-.14l.21-.69L12,97c.07-.24.15-.47.23-.7a.88.88,0,0,0,0-.15l.18-.49.15-.39c.07-.18.15-.37.22-.56a1.86,1.86,0,0,0,.1-.25l0-.08c.09-.22.18-.43.28-.64l0-.08c.1-.22.2-.44.31-.65,0-.06.05-.11.07-.16s.19-.39.29-.58a.3.3,0,0,0,0-.08l.33-.62h0l.15-.26.21-.37a1.59,1.59,0,0,1,.13-.22l.33-.56a.57.57,0,0,0,.08-.13c.11-.18.23-.36.35-.53l.2-.31L16,88.8l.21-.3.16-.22.25-.33,0,0c.08-.11.16-.23.25-.34l0,0,.23-.29.25-.31.38-.45.17-.2.35-.38c.07-.08.14-.17.22-.25l.45-.47.14-.14c.19-.2.39-.39.6-.59l.34-.32.1-.09.25-.22.11-.1.27-.23.08-.07.36-.3.07-.06.28-.22.12-.1.26-.19.11-.09.32-.24.05,0c.12-.09.24-.18.37-.26l.11-.08.26-.18.13-.09.28-.18.1-.07.38-.23.06,0,.33-.2.12-.07.28-.16.12-.07.32-.17.08-.05.39-.2.11-.06.3-.15a26.3,26.3,0,0,1,12.6-2.63,30.62,30.62,0,0,1,4.19.45l29,5.11a22.58,22.58,0,0,0,10.44-.52A21,21,0,0,0,85.78,81l.11-.06C86.05,80.88,86.21,80.8,86.36,80.71Z"/><path class="cls-2" d="M21.56,112.66a30.37,30.37,0,0,1,1.62-10.19l-1.88.92-11.19,5.47.16,30.52,16.55-8.08a38.25,38.25,0,0,1-3.09-6.57A36.18,36.18,0,0,1,21.56,112.66Z"/><path class="cls-3" d="M32.37,109.46c0,.07,0,.15,0,.22l0-.12Z"/><path class="cls-3" d="M32.38,119.49c0,.14.07.28.1.41h0C32.45,119.77,32.41,119.63,32.38,119.49Z"/><path class="cls-2" d="M33.37,89.34c0-.14.07-.29.1-.43s.07-.27.1-.41.07-.29.11-.43.06-.26.1-.4.08-.3.13-.45S34,87,34,86.83s.09-.3.14-.45.11-.36.17-.54l0-.06c.08-.24.16-.48.25-.71l0-.11c.09-.22.17-.45.26-.67l0-.14.27-.67,0-.09c.09-.21.18-.42.28-.63l0-.09c.1-.22.2-.44.31-.65,0,0,.05-.1.07-.16l.3-.59,0-.06.33-.62.11-.2.27-.48.1-.18.38-.62,0-.06.34-.54.21-.3.24-.35.21-.3.18-.25a26.3,26.3,0,0,0-12.6,2.63l-.3.15-.11.06-.39.2-.08.05-.32.17-.12.07-.28.16-.12.07-.33.2-.06,0-.38.23-.1.07-.28.18-.12.09-.27.18-.11.08c-.13.08-.25.17-.37.26l-.05,0-.32.24-.11.09-.26.19-.12.1-.28.22-.07.06-.36.3-.08.07-.27.23-.11.1-.25.22-.1.09-.34.32c-.21.2-.41.39-.6.59l-.14.14-.45.47c-.08.08-.15.17-.22.25l-.35.38-.17.2-.38.45-.25.31-.23.29,0,0-.25.34,0,0c-.08.11-.17.22-.24.33l-.17.22-.21.3-.24.35-.2.31c-.12.17-.24.35-.35.53a.57.57,0,0,1-.08.13l-.33.56a1.59,1.59,0,0,0-.13.22l-.21.37c0,.09-.1.17-.14.26h0l-.33.62a.3.3,0,0,1,0,.08c-.1.19-.19.39-.29.58s-.05.1-.07.16c-.11.21-.21.43-.31.65l0,.08c-.1.21-.19.42-.28.64l0,.08a1.86,1.86,0,0,1-.1.25c-.07.19-.15.38-.22.56l-.15.39-.18.49a.88.88,0,0,1-.05.15c-.08.23-.16.46-.23.7l-.12.37-.21.69s0,.09,0,.14-.09.31-.13.46-.07.26-.1.39-.09.35-.13.53-.05.21-.08.31-.06.29-.1.44-.06.28-.08.42l-.09.41c0,.15-.05.29-.08.44s-.05.28-.07.42-.05.29-.08.44l-.06.41-.06.45c0,.14,0,.28-.05.42l-.06.45c0,.19,0,.37,0,.56a1,1,0,0,0,0,.17c0,.19,0,.39,0,.58l0,.46h0c0,.23,0,.45,0,.68a1.55,1.55,0,0,0,0,.22c0,.14,0,.29,0,.44s0,.36,0,.53a1.93,1.93,0,0,0,0,.24v.83l11.19-5.47,1.88-.92q.2-.57.42-1.14a23.7,23.7,0,0,1,5.7-8.53,21.08,21.08,0,0,1,4-3v0Z"/><path class="cls-2" d="M21.55,68.85h0c.78-.36,1.57-.69,2.38-1l0,0h0c.44-.16.88-.31,1.33-.45l.06,0h0l.6-.18h0l.4-.12.35-.09h0l.06,0,.8-.21h0l.12,0,.61-.14.11,0h0l1.44-.28H30l1.27-.2h.1L31.9,66h0l.17,0,.6-.06h.07l1.11-.08h.22l.36,0h.8c.74,0,1.49,0,2.24,0h.23l.42,0h.16l.85.06h0l.25,0h0l.3,0,.26,0,.41,0,.14,0h0l.28,0h0l.24,0,.31,0h.06l.48.08.14,0,.47.07.34.06L65.19,55.38l-.24,0-.15,0-.28,0-.27,0-.28,0-.26,0-.28,0-.27,0-.28,0h-.13l-.13,0-.3,0-.25,0-.3,0-.26,0-.29,0-.26,0-.29,0H57.42l-.38,0h-.58l-.22,0-.36,0h-.21l-.52,0h-.09l-.6.06-.17,0-.44,0-.2,0-.44.06-.12,0H53l-.66.11-.15,0-.56.1-.15,0-.66.14-.13,0-.55.13-.1,0-.06,0L49.3,56l-.14,0-.75.21-.61.19-.19.06-.42.14-.21.07-.44.16-.16.06-.05,0-.16.06-.53.2-.26.1-.47.2-.26.11-.49.22-.23.1-.7.33L20.85,69.19l0,0,.67-.31Z"/><path class="cls-2" d="M71.8,71.44l14.53-7.1A17.09,17.09,0,0,0,88,59.41l-22.83-4L42.81,66.33Z"/><path class="cls-2" d="M72.07,71.49l.21,0,.21,0,.21,0,.2,0,.23,0h.2l.22,0h1.5l.29,0h.15l.47,0H76l.41-.06.25,0h.08l.33-.06.1,0,.26-.06.11,0,.21,0,.18,0,.19-.06.18-.05.19-.06.17-.06.19-.06.17-.06.26-.1.1,0,.26-.11.12,0,.23-.11.12,0a13.85,13.85,0,0,0,6.2-6.06L71.8,71.44Z"/><path class="cls-4" d="M98.41,60.68h0a1.23,1.23,0,0,0,0,.19A1.23,1.23,0,0,1,98.41,60.68Z"/><polygon class="cls-2" points="82.73 17.3 93.92 11.82 26.86 0 4.47 10.95 71.54 22.77 82.73 17.3"/><path class="cls-2" d="M120.92,46.21a1.09,1.09,0,0,0,0-.18c0-.13,0-.26,0-.39s0-.25,0-.37,0-.27,0-.4,0-.13,0-.2,0-.11,0-.17l0-.41,0-.36c0-.14,0-.28,0-.42a1.79,1.79,0,0,1,0-.23.51.51,0,0,1,0-.13l-.06-.47c0-.11,0-.22,0-.33s0-.32-.07-.49l0-.24,0-.09v-.11l-.12-.68h0c0-.22-.09-.45-.13-.68l0-.12,0-.09c0-.19-.08-.38-.13-.57l0-.13c0-.2-.09-.39-.13-.58l0-.12c-.05-.19-.09-.37-.14-.56l0-.09,0-.2c-.05-.16-.09-.33-.14-.5l-.06-.2-.18-.59,0-.09-.18-.58,0-.1,0-.13-.23-.66-.24-.64a1.34,1.34,0,0,0-.07-.18c-.06-.17-.13-.34-.19-.5l-.06-.14c-.07-.19-.15-.37-.23-.56l0-.06-.09-.19c-.06-.15-.13-.3-.2-.45s-.07-.15-.1-.23l-.19-.42c0-.07-.07-.15-.11-.22s-.14-.3-.22-.45l-.09-.18c-.1-.21-.21-.42-.31-.62l-.06-.1-.27-.52-.12-.2c-.07-.14-.15-.27-.23-.41l-.12-.22-.24-.4-.12-.21c-.1-.15-.19-.31-.29-.47l-.08-.12-.37-.59-.11-.15c-.09-.14-.19-.28-.28-.43a1.43,1.43,0,0,1-.14-.2l-.27-.38-.15-.2-.28-.39-.13-.18L113,24c-.16-.19-.31-.39-.46-.58a1.46,1.46,0,0,1-.16-.19c-.1-.13-.21-.25-.32-.38a2,2,0,0,0-.19-.22c-.09-.12-.19-.23-.28-.34l-.21-.23-.25-.28,0,0-.28-.3-.23-.25-.28-.29-.24-.25-.29-.29-.24-.23-.3-.29-.22-.21h0l-.08-.08-.41-.37L108.3,19,108,18.7l-.17-.14-.4-.34-.11-.09,0,0-.47-.37-.12-.1-.43-.33-.09-.07-.44-.32-.06,0-.41-.29-.21-.14-.63-.42-.15-.1-.2-.12-.39-.24-.28-.17-.39-.23-.13-.08-.16-.09-.35-.19-.3-.16-.35-.18-.16-.09-.15-.07-.32-.16-.33-.15-.32-.15-.17-.08-.16-.07-.31-.13-.33-.14-.31-.13L99,13.24l-.18-.07-.31-.11-.34-.13-.3-.1-.14-.05-.21-.07-.31-.09-.35-.11-.3-.09-.1,0-.25-.06-.31-.09-.35-.08-.31-.08-.09,0L94.77,12l-.21,0c-.21,0-.42-.09-.64-.12L82.73,17.3,71.54,22.77l.84.17h0l.12,0c.43.09.86.2,1.28.31l.13,0,.22.06h0l1,.29h0l.23.07.42.15.17.06.48.18h0l.61.24h0l.34.14h0c.53.23,1.07.48,1.6.74l.31.16.46.24.2.11h0l.57.32.07,0h0l.38.22.14.08.53.33h0L82,27l.79.53,0,0h0c.74.51,1.46,1.05,2.16,1.63h0l.06,0,.51.44.07.05.28.25h0l.16.14h0l.14.13.47.43.12.12h0l.3.28h0l.24.24h0c.1.1.2.19.29.29h0a.57.57,0,0,1,.11.11c.31.32.62.64.92,1h0l.24.27c.41.46.81.92,1.2,1.4h0c.15.19.31.38.46.58s.19.26.29.38l.26.35h0l.14.19c.1.13.2.27.29.41l0,.06c.07.11.15.21.22.31h0c0,.06.09.13.14.2h0l.28.42h0a1.3,1.3,0,0,0,.1.15h0l.59.94.14.23h0l.12.2h0l.14.25.1.15c.55,1,1.06,1.93,1.53,2.93h0l.12.26.18.39h0l.19.45h0l.09.19h0l.07.18.27.66.17.42h0l.06.17h0l.24.64c.08.22.16.45.23.67l0,.12c0,.1.07.2.1.3s.15.45.21.68l.12.38h0c.15.5.28,1,.41,1.5v0c.06.22.11.45.16.67v0h0l0,.14.09.42c.07.33.13.67.19,1v.06c0,.2.08.41.11.61l0,.2h0v.07c0,.24.07.48.1.72h0a2.51,2.51,0,0,1,0,.27v.06c0,.16,0,.31,0,.47h0V54l0,.27c.06.66.11,1.31.14,2h0c0,.1,0,.2,0,.3,0,.35,0,.69,0,1s0,.66,0,1v.33h0c0,.12,0,.23,0,.35h0v.09c0,.24,0,.48,0,.71l0,.32h0c0,.11,0,.23,0,.34h0a1.23,1.23,0,0,0,0,.19c0,.5-.11,1-.18,1.48,0,0,0,.09,0,.14h0a3.06,3.06,0,0,1,0,.32h0l-.06.38h0c0,.14,0,.28-.08.42a2.74,2.74,0,0,1,0,.28h0c-.07.34-.14.68-.22,1,0,.11,0,.23-.08.35l-.14.53,0,.12h0c0,.12-.07.25-.11.37h0l-.09.32h0l-.12.37h0l-.09.29h0c-.12.37-.25.74-.39,1.1l-.19.51-.2.48c0,.1-.09.2-.13.31h0l-.09.19c-.13.3-.27.59-.41.88h0l-.24.47,0,0-.06.11h0c-.07.13-.14.27-.22.4h0l-.09.16h0c-.08.16-.17.31-.26.46h0l0,0h0c-.08.15-.17.29-.26.43l-.13.21h0l-.12.17-.1.15q-.31.5-.66,1l-.06.08h0l-.18.24h0l-.18.23,0,0-.19.24h0l-.19.23-.34.4-.11.12h0l-.28.32h0c-.36.4-.73.78-1.12,1.15h0l-.41.38-.1.09-.42.36,0,0-.39.33-.1.08L88.9,79l-.07,0-.39.28-.1.07-.06,0,0,0,.4.07,19.27-9.42a21.16,21.16,0,0,0,5.28-3.68c.16-.15.33-.31.48-.47l.16-.16.32-.33.17-.2c.1-.1.19-.21.28-.31l.18-.21.27-.31.09-.12.1-.12.18-.23c.07-.09.14-.17.2-.26l.19-.24.19-.27a2.2,2.2,0,0,0,.17-.25l.19-.27.17-.25.08-.12a2.39,2.39,0,0,0,.13-.21l.09-.14.31-.5,0,0,.26-.46.09-.16.1-.19.12-.22.06-.11.26-.51,0-.11.21-.45.06-.11,0-.07a3.45,3.45,0,0,0,.14-.34l.09-.19.25-.6c.05-.12.1-.25.14-.38a.61.61,0,0,0,0-.12l.15-.4c0-.1.07-.2.1-.29s.09-.28.14-.41.05-.15.07-.22,0,0,0-.08l.12-.37.09-.31c0-.13.07-.25.1-.38l.08-.26v-.06a3.38,3.38,0,0,0,.08-.34l.09-.35c0-.11,0-.22.08-.34l.06-.29v-.06c0-.11,0-.22.07-.33s0-.24.07-.37l.06-.33c0-.09,0-.18,0-.28s0-.06,0-.09,0-.22,0-.32,0-.26,0-.39,0-.22.05-.33l0-.25s0-.09,0-.13,0-.22,0-.33l0-.39,0-.33a2,2,0,0,0,0-.23c0-.05,0-.11,0-.16s0-.23,0-.35,0-.25,0-.38,0-.24,0-.36a1.27,1.27,0,0,0,0-.2,1.93,1.93,0,0,1,0-.24V46.21Z"/><path class="cls-2" d="M39.79,99.9l-.32.16,0,0-.46.27-.08,0-.3.19-.12.08-.3.19,0,0-.44.32-.08.06-.28.22-.11.09-.27.23-.09.08-.4.37h0c-.09.08-.17.17-.26.26l-.1.1-.24.26-.06.07a4.71,4.71,0,0,0-.36.42l-.13.15-.12.16-.11.13-.21.29,0,0c-.11.16-.23.32-.34.49l-.08.13-.27.43-.06.1-.24.42-.07.13-.17.33-.09.17-.18.38s0,.09-.05.13-.09.19-.13.29a1.11,1.11,0,0,1-.07.16l-.11.29s0,.11-.07.17l0,.12,0,.12,0,.09-.12.35-.05.17c0,.12-.08.24-.11.37l-.09.29a1.33,1.33,0,0,1-.05.19l0,.1,0,.12,0,0c0,.13-.06.25-.08.38a1.94,1.94,0,0,0,0,.2c0,.12-.05.25-.07.37s0,.17-.05.26,0,.16,0,.24l0,.19v.1l-.06.4a1.23,1.23,0,0,1,0,.19c0,.13,0,.27,0,.4a2.28,2.28,0,0,0,0,.26,1.94,1.94,0,0,0,0,.24,1.7,1.7,0,0,0,0,.22.53.53,0,0,0,0,.13c0,.12,0,.24,0,.37v.18c0,.2,0,.4,0,.6h0c0,.12,0,.24,0,.37s0,.21,0,.31v.16c0,.08,0,.16,0,.24s0,.16,0,.24,0,.17,0,.25,0,.16,0,.23,0,.17,0,.26l0,.22,0,.28,0,.22a2.7,2.7,0,0,0,0,.28l0,.21c0,.14,0,.29.07.43s0,.06,0,.09.06.34.1.51a.36.36,0,0,0,0,.1c0,.19.08.39.13.58v0c0,.14.07.28.1.41h0a.83.83,0,0,1,0,.15h0l.15.53a1.54,1.54,0,0,1,0,.17l0,0c0,.18.11.36.17.54l0,.11h0l.09.27.06.17a1.55,1.55,0,0,1,.08.23l0,.12.12.31.06.16a2.33,2.33,0,0,1,.11.28l.09.21c0,.1.09.2.13.29s0,.11.07.16c.13.29.27.59.42.88v0l.21.41a1.09,1.09,0,0,0,.08.15l.15.27.09.17.15.25.06.11.18.31.07.11c.06.1.12.2.19.3h0l.34.51,0,.07.15.21.13.18c.06.1.14.2.21.3l.07.09c.11.16.23.32.35.47l0,0,.36.45a2.09,2.09,0,0,1,.14.17l.17.2.11.13.21.23h0l.14.16L38,130l.14.15.29.3,0,0,.25.25.07.08.2.18.13.13.48.43.06.05.08.07.45.38.06.05h0l.36.29.06.05.42.31.1.08h0l.41.29.05,0,.36.24.16.1.27.17.14.08.24.14.18.1.21.12.18.1.22.12.19.09.27.13.06,0,.28.13h0l.2.09.19.08.2.09.2.08h0l.21.08.19.07.18.07.22.07h0l.22.07.18.06.22.06.19.06.22.06h0l.2.05.22.06.19,0,.27.06.12,0,.4.07,14.93-7.29,7.46-3.65-.4-.08-.13,0-.26,0-.19,0-.23,0-.19,0-.22-.07-.19,0-.22-.07-.18-.06-.22-.07-.19-.07L68,124.3l-.19-.07-.21-.09-.19-.07-.21-.09-.19-.08-.19-.09-.21-.1-.2-.09-.2-.1-.19-.1-.22-.11-.18-.1-.22-.12-.17-.1-.24-.14-.17-.1-.24-.15-.16-.1-.36-.24-.06,0-.41-.29-.1-.07-.35-.26-.13-.1-.36-.29-.07,0-.49-.41-.1-.1-.48-.42-.14-.14-.19-.18-.14-.14-.19-.18-.14-.16-.18-.18-.15-.16-.17-.18-.13-.15-.18-.2-.14-.16-.17-.21-.14-.16-.16-.2c0-.06-.09-.12-.14-.17l-.16-.21-.13-.17-.16-.21-.12-.18-.16-.21-.12-.18-.15-.22-.12-.18-.15-.22a1.18,1.18,0,0,1-.11-.19l-.15-.22-.11-.19c0-.07-.09-.15-.14-.23l-.1-.18-.15-.25-.09-.17-.15-.28a1.09,1.09,0,0,1-.08-.15l-.2-.37,0-.06c-.08-.14-.15-.29-.22-.44l-.06-.13a2.92,2.92,0,0,1-.14-.31s-.05-.11-.08-.17l-.12-.27-.09-.22-.09-.22a1.43,1.43,0,0,1-.08-.22l-.09-.22a1.43,1.43,0,0,1-.08-.22,4662783868457.17,4662783868457.17,0,0,0-.16-.44l-.08-.23,0-.1-.18-.55a.65.65,0,0,0,0-.13c-.06-.2-.11-.41-.17-.62a1,1,0,0,0,0-.14c0-.14-.07-.28-.1-.41s0-.12,0-.17-.07-.31-.1-.47a.29.29,0,0,1,0-.09c0-.18-.07-.35-.1-.52l0-.12-.06-.4,0-.2a2.89,2.89,0,0,1,0-.29l0-.21,0-.28,0-.23c0-.08,0-.17,0-.25a2,2,0,0,1,0-.23c0-.09,0-.17,0-.26s0-.16,0-.24a1.85,1.85,0,0,0,0-.23,1.93,1.93,0,0,0,0-.24v-.24c0-.12,0-.24,0-.36s0-.44,0-.66,0-.37,0-.55,0-.1,0-.15l0-.43s0-.1,0-.14l.06-.54a.19.19,0,0,1,0-.08c0-.16,0-.31.06-.46s0-.11,0-.16,0-.28.07-.42v-.07l-6.17-1.09A13.6,13.6,0,0,0,39.79,99.9Z"/><path class="cls-2" d="M34.57,89.12l.21-.1.19-.09,0,0,.14-.06.19-.09.21-.09.06,0,.3-.13h0l.17-.07.28-.11.12,0h0l.42-.15.11,0h0l.67-.22.78-.21.39-.1h0l.17,0h0l.23-.05.35-.07.57-.11.12,0h0l.47-.07.13,0h0l.57-.07h0l.31,0,.28,0h.12l.56,0,.58,0H44c.39,0,.77,0,1.16,0h.24q.53,0,1,.09h.06l.6.08h0l.26,0,.42.06.4.07,13-6.35L53.85,79.7Z"/><polygon class="cls-2" points="48.49 136.01 94.04 144.04 116.43 133.1 70.88 125.07 63.42 128.72 48.49 136.01"/><polygon class="cls-2" points="94.1 155.47 116.49 144.53 116.43 133.1 94.04 144.04 94.1 155.47"/><path class="cls-2" d="M88.23,79.5l-.33.23-.09.06-.4.25-.09.06-.46.28-.1.05-.42.24-.08,0c-.15.09-.31.17-.47.25l-.11.06a21,21,0,0,1-3.38,1.33,22.55,22.55,0,0,1-10.43.52L61.21,81l-13,6.35,45.55,8,22.39-10.94L88.63,79.57l-.4-.07Z"/><polygon class="cls-2" points="93.83 106.8 116.22 95.86 116.16 84.43 93.77 95.37 93.83 106.8"/></g></svg>