<svg xmlns="http://www.w3.org/2000/svg" viewBox="0 0 64 64"><defs><style>.cls-1{fill:#fff2c9;}</style></defs><title>slut</title><g id="TEXT"><path class="cls-1" d="M32,0A32,32,0,1,0,64,32,32,32,0,0,0,32,0Zm8.43,46.79q-2.79,2.53-8.33,2.53a23.3,23.3,0,0,1-5-.48,7.75,7.75,0,0,1-3.54-1.73,7.47,7.47,0,0,1-2.07-3.35,17.12,17.12,0,0,1-.68-5.18h8.39A13.66,13.66,0,0,0,29.33,41a7.55,7.55,0,0,0,.45,1.64,2.06,2.06,0,0,0,2,1.25,3,3,0,0,0,1.25-.22,1.49,1.49,0,0,0,.75-.82,5.75,5.75,0,0,0,.36-1.64c.06-.69.1-1.56.1-2.62,0-1.67-.27-2.8-.8-3.37A3.21,3.21,0,0,0,31,34.34H28.72V28.75H30a6.71,6.71,0,0,0,1.74-.2,2.32,2.32,0,0,0,1.2-.72,3.38,3.38,0,0,0,.73-1.47,10.08,10.08,0,0,0,.24-2.43A5.29,5.29,0,0,0,33.37,21a2,2,0,0,0-1.71-.74,1.93,1.93,0,0,0-1.85,1A8.49,8.49,0,0,0,29.25,25H21.16c.09-3.57,1-6.17,2.79-7.81s4.4-2.5,7.91-2.5a18.59,18.59,0,0,1,5.2.62,7.94,7.94,0,0,1,3.3,1.83,6.68,6.68,0,0,1,1.74,3,14.83,14.83,0,0,1,.5,4,9.74,9.74,0,0,1-.24,2.1,7.08,7.08,0,0,1-.79,2A5.92,5.92,0,0,1,40.1,29.9a5.45,5.45,0,0,1-2.27,1V31A5.82,5.82,0,0,1,42,33.64a9.3,9.3,0,0,1,1.21,4.84Q43.23,44.27,40.43,46.79Z"/></g></svg>